<?xml version="1.0" encoding="UTF-8"?>
<svg version="1.1" viewBox="0 0 2000 2000" width="500" height="500" xmlns="http://www.w3.org/2000/svg">
<path transform="translate(0)" d="m0 0h2e3v2e3h-2e3z" fill="#FDFDFD"/>
<path transform="translate(1026,446)" d="m0 0h10l8 4 7 7 7 8 12 11 14 11 13 12 7 6v2l4 2 10 10 11 8 5 3 4 1h9l5-3 6-10 11-30 7-11 7-7 9-5 8-2h13l13 4 11 7 7 7 8 14 3 9v16l-5 12-8 9-21 13-12 7-7 8-2 9 3 8 8 10 12 11 20 15 13 11 17 14 19 14 6 8 1 3v7l-4 8-12 11-10 14-13 15-21 21-10 13-7 11-5 11 1 4 12 6 12 5 15 8 9 7 8 8 6 12 2 9v12l-4 13-6 10-8 8-11 7-9 3-8 1-11-2-14-7-10-9-6-7-9-16-6-10-5-5-9 1-12 8-13 12-11 13-12 16-10 13-9 11-9 10-9 8-8 4-8 1-9-4-11-8-12-11-16-12-18-12-2-1h-16l-10 4-5 6-1 2v13l7 21 11 26 13 29 7 21v10l-4 10-7 9 9-1 9 2v-10l36-15 27-11 22-8 22-5 7-1h10l12 3 6 4 5 6 3 7 1 5 1 35 4 10 4 5 10 6 11 3h9l12-3 12-6 8-8 4-6 4-13v-7l-3-9-12-17-8-13-4-10-1-5v-11l4-7 7-5 38-15 24-11 25-10 13-4 7-1h8l7 3 7 10 6 15 10 32 8 27 9 27 2 12-2 8-4 7-8 6-10 4-5 1h-36l-8 4-5 5-6 9-3 9v18l3 10 6 10 4 5 9 6 11 4h12l12-6 13-12 7-6 14-7 8-1 10 4 6 5 10 15 10 21 12 36 15 50v4l-14 5-45 13-33 11-17 8-13 8-6 5-4 6 1 7 6 12 18 27 8 16 2 7v12l-3 8-5 6-11 7-11 4-12 2h-15l-12-2-8-6-6-8-4-12-1-6-2-40-4-10-5-4-4-1h-12l-17 3-27 9-23 10-20 9-29 13-3 7-6 1-2-2-6 1-19 9-39 14-35 10-17 4-7 1h-11l-7-3-4-5-3-8v-43l-3-9-7-9-8-6-11-4h-22l-10 3-8 6-5 7-2 6-1 14 3 16 6 16 9 15 7 14 1 9-4 7-5 4-25 10-32 11-42 16-21 7h-5l-4-11-21-70-10-26-8-15-5-5-6-4h-8l-10 6-11 10-16 12-12 6-3 1h-12l-10-3-10-6-7-7-6-10-4-10-1-5v-12l4-14 6-10 8-7 10-5 5-1h17l17 1 11-4 7-8 2-6v-9l-5-21-11-27-9-21-7-21-3-13v-5l-7 2h-7l-1-9 5-3 10-4-6-5-11-19-8-19-8-23-13-31-6-18-1-5v-9l4-8 6-5 7-3 5-1h33l13-5 8-6 6-7 5-11 1-4v-15l-4-12-8-11-8-6-9-4-4-1h-14l-10 4-9 7-15 14-11 7-9 2-10-5-7-8-9-16-10-24-12-37-13-43-2-7 9-4 34-10 35-10 24-9 16-8 9-7 8-11-1-5-9-12-11-16-6-12-2-8v-15l4-14 6-11 8-8 9-5 9-3h13l12 4 11 6 8 9 5 12 1 5 1 41 3 9 10 5h7l20-5 20-7 2-3v-6l-6-4 1-4 11-14 21-28 13-17 11-13 7-8 8-9 11-9 8-5 7-2 10 1 6 4 6 7 8 15 8 17 8 7 13 5h12l14-4 10-6 8-9 4-9 1-4v-11l-5-15-7-10-10-9-17-10-16-8-6-5-3-9 4-11 11-16 9-12 13-18 18-22 13-13 10-13z" fill="#535B5E"/>
<path transform="translate(1026,446)" d="m0 0h10l8 4 7 7 7 8 12 11 14 11 13 12 7 6v2l4 2 10 10 11 8 5 3 4 1h9l5-3 6-10 11-30 7-11 7-7 9-5 8-2h13l13 4 11 7 7 7 8 14 3 9v16l-5 12-8 9-21 13-12 7-7 8-2 9 3 8 8 10 12 11 20 15 13 11 17 14 19 14 6 8 1 3v7l-4 8-12 11-10 14-13 15-21 21-10 13-7 11-5 11 1 4 12 6 12 5 15 8 9 7 8 8 6 12 2 9v12l-4 13-6 10-8 8-11 7-9 3-8 1-11-2-14-7-10-9-6-7-9-16-6-10-5-5-9 1-12 8-13 12-11 13-12 16-10 13-9 11-9 10-9 8-8 4-8 1-9-4-11-8-12-11-16-12-18-12-2-1h-16l-10 4-5 6-1 2v13l7 21 11 26 13 29 7 21v10l-4 10-6 7v3l-16 4-24 10-29 13-27 11-16 4h-7l-7-3-3-9-4-38-4-16-5-10-9-10-8-4-4-1h-17l-16 4-16 8-10 8-7 11-2 7v8l3 12 7 14 13 18 7 10 6 11-1 5-5 5-10 6-21 9-36 12-41 12-5 1-5-3-7-10-9-17-9-25-11-28-8-19-4-13-1-5v-9l4-8 6-5 7-3 5-1h33l13-5 8-6 6-7 5-11 1-4v-15l-4-12-8-11-8-6-9-4-4-1h-14l-10 4-9 7-15 14-11 7-9 2-10-5-7-8-9-16-10-24-12-37-13-43-2-7 9-4 34-10 35-10 24-9 16-8 9-7 8-11-1-5-9-12-11-16-6-12-2-8v-15l4-14 6-11 8-8 9-5 9-3h13l12 4 11 6 8 9 5 12 1 5 1 41 3 9 10 5h7l20-5 20-7 2-3v-6l-6-4 1-4 11-14 21-28 13-17 11-13 7-8 8-9 11-9 8-5 7-2 10 1 6 4 6 7 8 15 8 17 8 7 13 5h12l14-4 10-6 8-9 4-9 1-4v-11l-5-15-7-10-10-9-17-10-16-8-6-5-3-9 4-11 11-16 9-12 13-18 18-22 13-13 10-13z" fill="#535B5E"/>
<path transform="translate(1330,914)" d="m0 0h8l7 3 7 10 6 15 10 32 8 27 9 27 2 12-2 8-4 7-8 6-10 4-5 1h-36l-8 4-5 5-6 9-3 9v18l3 10 6 10 4 5 9 6 11 4h12l12-6 13-12 7-6 14-7 8-1 10 4 6 5 10 15 10 21 12 36 15 50v4l-14 5-45 13-33 11-17 8-13 8-6 5-4 6 1 7 6 12 18 27 8 16 2 7v12l-3 8-5 6-11 7-11 4-12 2h-15l-12-2-8-6-6-8-4-12-1-6-2-40-4-10-5-4-4-1h-12l-17 3-27 9-23 10-20 9-29 13-3-1-7-24-13-44-10-28-8-18-7-12-9-10-3-2-6-1-10 3-14 9-12 9-15 10-11 5-4 1h-9l-6-3-7-6-6-9-5-11-3-12v-13l4-8 7-7 11-4 21-3 21-2 13-3 8-5 5-8 1-3v-15l-4-15-8-20-13-27-9-21-10-26-3-2v-11l36-15 27-11 22-8 22-5 7-1h10l12 3 6 4 5 6 3 7 1 5 1 35 4 10 4 5 10 6 11 3h9l12-3 12-6 8-8 4-6 4-13v-7l-3-9-12-17-8-13-4-10-1-5v-11l4-7 7-5 38-15 24-11 25-10 13-4z" fill="#545C5F"/>
<path transform="translate(813,991)" d="m0 0h17l10 4 8 7 7 10 5 15 3 25 2 19 3 9 6 2h7l19-5 26-11 36-16 15-6 19-5 11 1 7 4 12 31 12 26 11 24 7 19 2 9v15l-5 10-6 5-7 3-10 2-31 3-18 4-6 4-6 7-2 5v13l3 12 8 16 4 5 8 6 3 1h9l11-4 12-7 15-11 14-10 9-4 6-1 6 2 8 7 9 13 8 17 10 27 12 39 9 33v2h2l-2 8-6 1-5-5-7-21-7-24-7-25-6-18-9-21-6-11-7-10-7 1-12 7-15 11-14 9-10 5-11 3h-11l-10-4-10-9-8-11-6-14-3-11v-20l4-9 6-8 7-6 12-5 19-3 27-3 13-3 3-5v-11l-4-16-11-25-11-22-10-23-5-15v-2l-22 5-18 6-28 13-22 10-19 7-15 3-11-1-8-4-6-7-4-14-4-40-4-13-6-8-5-3-4-1h-16l-17 5-10 6-8 9-2 5v11l5 12 7 11 13 18 9 15 2 6v6l-4 6-10 9-14 8-21 9-36 12-30 9-25 7h-7l-1-9 5-3 19-7 41-12 33-11 21-9 12-7 3-4-1-6-7-12-13-18-9-14-5-13-1-6v-8l4-11 7-9 12-9 13-6z" fill="#151112"/>
<path transform="translate(970,737)" d="m0 0h12l13 4 11 6 7 6 6 10 2 5v16l-4 13-3 4h-14l-10 3-11 8-9 9-6 7-8 4-6 2-7-1-6-4-7-10-3-7v-7l5-19 8-19 7-13 10-11 9-5z" fill="#FDFDFD"/>
<path transform="translate(395,856)" d="m0 0h18l13 3 13 7 10 9 7 8 7 14 3 11 1 13-2 17-4 12-6 11-7 9-10 10-11 7-16 7-11 2h-18l-17-3-12-5-2-2v-3l5 1 15 5 12 2h15l17-4 16-8 12-11 6-7 5-9 5-12 2-11v-18l-3-13-8-15-4-4v-2l-4-2-9-7-8-4-11-3-13-1-15 3-11 6-10 9-7 11-3 8-1 6v10l4 13 7 11 10 9 9 4 4 1h16l9-3 8-6 5-6 3-6 1-6v-8l-4-10-4-5-10-5h-12l-8 5-4 5-2 5v11l1 5-2 1-3-3-1-2v-13l3-8 4-5 8-5 3-1h14l10 5 5 4 6 10 1 4v12l-3 10-7 9-8 6-9 4-10 2h-8l-12-4-10-6-9-9-8-14-2-7v-17l4-13 7-11 6-7 14-9 9-3z" fill="#211F21"/>
<path transform="translate(812,447)" d="m0 0h19l12 3 14 7 10 9 6 7 6 10 4 12 1 9v16l-3 16-8 16-7 9-9 9-14 9-12 5-12 3h-22l-16-4-12-5-1-4 6 1 10 4 16 3h17l16-4 16-8 12-11 6-7 5-8 5-14 2-13v-11l-3-16-7-14-9-10-11-8-12-5-16-2-13 2-10 4-9 6-8 9-7 12-2 10v8l2 10 7 14 9 9 8 5 8 2h16l11-4 8-7 5-8 2-10-1-10-5-9-9-6-4-1h-11l-8 5-4 5-2 5v17l-4-2-2-7 1-10 5-10 8-6 5-2h14l10 5 6 5 5 10 1 4v11l-4 11-4 6-8 7-11 5-10 2-12-1-12-5-8-6-7-7-6-10-3-7-1-5v-15l2-9 5-10 7-9 9-8 14-7z" fill="#222122"/>
<path transform="translate(594,1473)" d="m0 0h23l12 4 12 7 9 8 9 13 5 11 3 16v10l-2 14-5 14-9 14-7 8-13 10-10 5-13 4-12 2h-12l-15-3-16-6-2-2v-3l9 3 11 4 11 2h16l16-4 12-5 11-8 5-5 8-9 7-14 4-16v-20l-3-12-6-12-8-10-12-9-12-5-11-2h-8l-14 3-12 6-9 8-7 11-4 10-1 13 3 12 5 10 9 10 8 5 10 3h13l10-3 8-5 6-7 3-6 1-5v-10l-4-10-7-6-8-3h-10l-7 3-3 1-2 4-3 8v8l1 7-4-1-2-4v-12l4-9 5-5 6-4 4-1h12l10 4 8 7 4 8 1 3v14l-4 11-9 10-11 6-7 2h-16l-12-4-10-7-8-9-6-10-3-11v-14l4-13 6-11 12-12 12-6z" fill="#212021"/>
<path transform="translate(1576,1347)" d="m0 0h21l12 3 12 6 11 9 7 8 6 12 3 10 1 6v20l-3 14-5 12-7 11-10 10-10 7-16 8-11 3-7 1h-15l-20-5-10-5-1-4 5 1 12 5 17 3h12l14-3 12-5 12-7 11-11 8-13 5-13 2-10v-18l-3-13-7-14-8-9-10-7-10-5-6-2-7-1h-11l-10 2-9 4-9 6-9 10-6 12-1 3v19l4 11 6 9 5 6 10 6 11 3h10l11-3 9-6 6-8 3-10v-8l-3-9-7-8-11-4-10 1-8 5-4 7-1 4v8l1 7-4-1-2-4v-11l4-10 7-7 7-3h15l9 4 6 5 5 9 1 3v15l-4 11-9 10-12 6-7 2h-13l-11-3-8-4-11-10-7-11-3-9-1-6v-10l2-11 6-12 8-10 12-9 11-4z" fill="#211F21"/>
<path transform="translate(1456,711)" d="m0 0h20l12 3 14 7 10 9 7 8 5 10 3 9 1 7v24l-4 15-7 14-11 13-14 10-15 7-11 3-7 1h-15l-19-5-10-5-2-4 5 1 12 5 17 3h13l17-4 16-8 11-9 8-10 8-16 3-12v-24l-4-13-5-10-9-10-8-6-11-6-14-3h-11l-13 3-11 6-9 8-8 13-2 5-1 6v12l3 12 7 11 8 8 10 5 9 2h8l12-3 8-5 5-5 5-10v-14l-3-8-4-5-10-5-9-1-9 3-6 7-2 4v18l-4-1-2-6v-8l4-10 6-7 9-4h15l10 5 7 8 3 7v18l-4 9-6 8-10 6-7 3-5 1h-13l-13-4-8-5-6-5-9-13-4-13v-16l3-12 7-12 10-10 10-6 8-3z" fill="#222022"/>
<path transform="translate(806,720)" d="m0 0 8 2 11 8 12 10 11 9 13 11 11 9 13 11 11 9 13 11 11 9 5 3 2 1v2l3 1v5l-4 2-1 2-6-1-13-10-11-9-9-8-10-8-14-12-14-11-10-9-14-11-10-9-8-6-2-1v-7z" fill="#151112"/>
</svg>
