<?xml version="1.0" encoding="UTF-8"?>
<svg version="1.1" viewBox="0 0 2000 2000" width="500" height="500" xmlns="http://www.w3.org/2000/svg">
<path transform="translate(0)" d="m0 0h2e3v2e3h-2e3z" fill="#FEFFFE"/>
<path transform="translate(974,532)" d="m0 0h51l32 3 32 6 36 9 32 11 26 11 17 8 24 14 30 20 19 14 14 12 12 11 25 25 7 8 11 13 15 20 15 23 12 19 4 2 15 1 19 3 16 6 14 7 16 12 14 14 11 16 9 19 4 13 2 14v146l-3 15-6 16-7 14-9 12-9 10-11 10-17 11-16 7-14 4h-3l-3 9-13 31-10 21-11 19-14 22-13 18-11 14-9 10-7 8-16 17-8 7-8 8-11 9-13 11-16 12-20 13-21 12-28 14-31 13-33 11-18 5-3 3-8 17-9 13-10 11-14 11-17 9-16 5-15 2h-11l-18-2-16-5-16-8-12-9-9-8-10-13-8-14-5-13-3-12-1-7v-23l5-21 8-16 7-11 11-12 10-9 11-7 13-6 18-5 8-1h21l19 4 15 6 14 8 14 12 11 14 3 5 7-1 36-12 22-9 25-13 24-15 17-12 13-11 14-12 15-15 7-8 12-14 14-19 10-15 12-21 11-22 11-28 7-23 6-25 4-26 2-21v-31l-3-34-4-25-6-26-8-27-11-27-9-19-14-24-14-20-9-12-9-11-9-10-22-22-11-9-16-13-15-10-21-13-27-14-25-10-27-9-27-6-27-4-20-2h-44l-28 3-29 5-26 7-31 11-24 11-17 9-19 12-16 11-11 9-13 11-8 7-25 25-11 14-14 19-10 15-12 21-13 27-8 21-8 26-6 27-4 26-1 12v36l2 29 4 29 7 30 12 36 4 9v2h-74l-16-2-16-5-17-8-14-10-10-9-10-10-10-14-9-19-4-13-2-17v-140l2-15 6-18 8-15 8-11 11-12 10-9 15-10 14-7 16-5 15-2 18-1 6-9 8-14 14-21 14-19 8-9 7-8 9-10 31-31 11-9 18-14 33-22 24-14 23-11 27-11 24-8 30-8 35-7 25-3z" fill="#545B5F"/>
<path transform="translate(827,751)" d="m0 0h54l81 1h225l16 5 9 6 8 8 6 12 2 5v57l-13 12-13 10-17 12-24 14-25 13-31 14-27 11-30 11-34 11-38 10-32 7-34 5-24 2h-26l-21-3-11-4-9-6-5-6-2-5v-10l5-12 7-11 12-13 5-5 12-11 18-13 20-13 23-13 17-9 15-7-9 3-16 6-35 17-20 11-16 10-17 12-13 10-11 9-13 13-9 11-9 15-2 1-1-3v-163l5-13 8-10 11-8 14-5z" fill="#545B5F"/>
<path transform="translate(776,984)" d="m0 0 3 1 4 6 9 7 14 6 14 4 20 3 27 1 29-2 32-4 35-7 36-9 7-1 4 10 15 47 23 70 14 43 8 24 6 19v6l-11 1h-79l-171-1-14-4-13-9-8-10-4-9-1-4-1-13v-134l1-40z" fill="#545B5F"/>
<path transform="translate(1226,869)" d="m0 0h1l1 8v287l-2 11-3 9-7 9-7 7-9 5-11 3-11 1-50-1-4-4-14-44-10-31-22-67-16-50-12-36v-2l29-12 25-11 19-9 22-12 17-10 22-15 13-10 14-12 12-12z" fill="#545B5F"/>
<path transform="translate(827,751)" d="m0 0h54l81 1h225l16 5 9 6 8 8 6 12 2 5v57l-13 12-13 10-17 12-24 14-4 1 4-4 8-5h3v-2l5-3 9-6 10-8 8-5 9-9h2v-2h2l2-4 4-3v-54l-2-9-10-12v-2l-4-2-5-4-5-2-100-1h-184l-107 1-8 4-8 7-7 9-4 8-1 11v152l3-5 1 2-3 6-3 2-1-3v-163l5-13 8-10 11-8 14-5z" fill="#777C80"/>
<path transform="translate(1226,869)" d="m0 0h1l1 8v287l-2 11-3 9-7 9-7 7-9 5-11 3-11 1-50-1-4-4-14-44-10-31-12-36 1-4 13 38 9 27 2 5 3 10 3 11 3 5 5 15v2h62l7-2 10-4 9-8 6-8 2-6v-287h-2v-2l-4-1-10 5-7 7-5 4-10 7-2-1 14-11 14-12 12-12z" fill="#777C80"/>
<path transform="translate(776,984)" d="m0 0 3 1 4 6 9 7-2 1-6-3-5-6v-2h-2v177l2 12 5 10 4 5 2 1v2l7 2 4 3 7 2 10 1h128l117-1 5-1-2-19-3-9-7-22-3-9-10-34-3-8v-5l2 3 13 40 13 38 6 20 2 6v6l-11 1h-79l-171-1-14-4-13-9-8-10-4-9-1-4-1-13v-134l1-40z" fill="#777C80"/>
<path transform="translate(983,819)" d="m0 0 1 2-22 10-11 4-9 2-8 3-3-1 27-11z" fill="#888D90"/>
<path transform="translate(828,916)" d="m0 0v3l-8 11-3 9h-2v14l3 7 5 6-4-2-5-6-2-5v-10l5-12 7-11z" fill="#777C80"/>
<path transform="translate(847,896)" d="m0 0 2 1-19 19v-3l8-9 8-7z" fill="#777C80"/>
</svg>
