<?xml version="1.0" encoding="UTF-8"?>
<svg version="1.1" viewBox="0 0 2000 2000" width="500" height="500" xmlns="http://www.w3.org/2000/svg">
<path transform="translate(0)" d="m0 0h2e3v2e3h-2e3z" fill="#FDFDFD"/>
<path transform="translate(847,538)" d="m0 0 4 2 9 10 12 13 23 23 8 7 13 12 14 11 16 13 19 14 15 10 25 16 21 12 38 19 34 15 36 13 37 11 1 114h84v11l-4 40-6 42-7 37-10 42-10 34-12 37-13 33-12 27-11 24-11 21-14 24-11 18-8 12-14 20-16 21-9 11-11 12-7 8-12 13-16 16-8 7-10 9-14 11-19 14-15 10-22 13-25 13-25 11-19 7-28 8-4 1h-13l-19-5-36-12-25-12-23-12-23-14-19-13-18-14-15-13-13-12-21-21-7-8-12-13-9-11-12-15-13-18-16-24-13-21-12-21-17-33-11-24-14-35-9-25-11-34-9-34-7-30-7-36-6-42-3-27-2-30-1-24v-71l5-2 49-8 27-6 25-7 43-14 29-12 35-17 25-13 27-16 19-12 17-12 26-20 14-12 11-9 7-7 8-7 28-28 7-8z" fill="#555C60"/>
<path transform="translate(847,538)" d="m0 0 4 2 9 10 12 13 23 23 8 7 13 12 14 11 16 13 19 14 15 10 25 16 21 12 38 19 34 15 36 13 37 11 1 114h84v11l-4 40-6 42-7 37-10 42-10 34-12 37-13 33-12 27-11 24-11 21-14 24-11 18-8 12-14 20-16 21-9 11-11 12-7 8-12 13-16 16-8 7-10 9-14 11-19 14-15 10-22 13-25 13-25 11-19 7-28 8-4 1h-13l-19-5-36-12-25-12-23-12-23-14-19-13-18-14-15-13-13-12-21-21-7-8-12-13-9-11-12-15-13-18-16-24-13-21-12-21-17-33-11-24-14-35-9-25-11-34-9-34-7-30-7-36-6-42-3-27-2-30-1-24v-71l5-2 49-8 27-6 25-7 43-14 29-12 35-17 25-13 27-16 19-12 17-12 26-20 14-12 11-9 7-7 8-7 28-28 7-8zm-1 102-10 10-11 9-11 10-13 10-20 15-18 13-29 19-16 9-22 12-21 11-28 13-34 14-25 9-28 9-40 10-11 3v13l3 44 5 42 8 47 9 39 7 26 13 41 17 43 19 41 15 27 13 22 16 24 12 16 11 14 9 11 12 14 24 24 8 7 14 12 18 14 17 11 24 14 25 12 38 13 11-3 26-9 20-9 17-9 23-14 14-10 16-13 11-9 15-14 12-11 13-14 18-22 13-17 10-14 10-15 11-19 13-23 10-19 13-28 11-27 9-24 11-34 12-46 7-33 7-44 2-16v-8l-1-1-38-1-1-75-10-4-36-12-27-10-27-12-27-13-22-12-23-13-24-15-22-15-15-11-17-13-14-11-15-13-11-9z" fill="#555C60"/>
<path transform="translate(846,640)" d="m0 0 5 3 28 24 30 23 18 13 12 8 22 14 15 9 18 10 14 8 16 8 32 15 33 13 51 17 1 1 1 75 38 1 1 1v8l-6 42-7 38-12 48-10 33-11 31-14 34-9 20-20 38-14 24-11 17-12 17-10 13-11 14-9 10-7 8-9 10-17 16-11 10-14 11-15 12-19 12-17 10-21 11-23 9-24 8-11-3-29-10-29-14-25-15-13-9-13-10-14-12-8-7-12-11-19-19-9-11-11-13-10-13-14-19-14-22-10-17-12-21-9-17-15-33-13-33-9-25-12-40-9-37-7-36-6-40-4-38-2-33v-13l15-4 36-9 43-14 42-17 27-13 21-10 23-13 15-8 36-24 14-10 17-13 12-9 30-26zm-1 34-13 11-14 11-18 14-16 12-16 11-19 12-15 9-24 13-23 12-28 14-37 15-36 12-30 9-21 6-1 1v12l4 42 5 36 8 43 13 52 14 43 15 38 12 26 10 20 16 27 10 17 13 19 12 16 11 14 12 14 16 17 17 17 11 9 12 10 19 14 12 8 17 10 24 11 22 9 9 2v-206l1-2 111-1-6-17-21-55-14-37-6-16 1-5 11-11 10-14 8-16 4-13 2-13v-18l-4-20-5-13-8-15-11-14-9-9-15-10-14-6-19-5-15-2-1-170z" fill="#FEFEFE"/>
<path transform="translate(840,870)" d="m0 0h16l18 4 14 7 10 8 10 10 7 11 6 14 3 14v17l-3 15-8 16-7 10-8 8-11 8-5 2 4 13 30 78 8 20v2l-4 1h-149l1-5 22-58 16-41 3-10-6-2-10-8-11-11-8-13-4-10-3-12-1-17 2-13 5-14 7-12 10-11 14-11 13-6 12-3z" fill="#FEFEFE"/>
<path transform="translate(1202,707)" d="m0 0h114l1 1v114h-115z" fill="#555C60"/>
<path transform="translate(1317,1305)" d="m0 0h2l2 15 1 6-8 6-5 8-3 21 12-6 13-3h11l13 3 10 5 2-1-2-16-5-10-8-7-1-4 3-8v-8l3-1 11 7 8 9 5 9 3 7 2 11 1 18 8 17 3 14v10l-3 14-8 16-11 12-9 6-11 5-8 2h-23l-13-4-9-5-9-7v-2h-2l-8-11-5-10-3-12v-18l3-11 8-18 1-20 3-12 7-12 5-6 10-7z" fill="#555C60"/>
<path transform="translate(1315,862)" d="m0 0h87l1 1v87h-88z" fill="#555C60"/>
<path transform="translate(1408,738)" d="m0 0h70l1 1v71h-71l-1-62z" fill="#555C60"/>
<path transform="translate(1331,1220)" d="m0 0h15l14 2 15 5 21 11 7 5 1 2v6l-1 2h-2v2l-4 1-27-14-17-5-8-1h-13l-15 2-19 7-21 11-4-1-4-5 1-6 7-6 19-10 15-5 9-2z" fill="#555C60"/>
<path transform="translate(1469,651)" d="m0 0h41l1 3-1 39h-41l-1-1v-40z" fill="#555C60"/>
<path transform="translate(1333,1247)" d="m0 0h10l14 2 15 6 12 8 5 4-1 6-3 3-1 2-5-2-14-8-10-4-12-2h-12l-14 3-16 7-8 5-4-1-1-4h-3l-1-5 8-7 16-8 14-4z" fill="#555C60"/>
<path transform="translate(1417,567)" d="m0 0h29l5 1v33l-1 1h-33z" fill="#555C60"/>
<path transform="translate(1530,742)" d="m0 0h33l1 34-1 1h-32l-1-1z" fill="#555C60"/>
<path transform="translate(1333,1376)" d="m0 0 10 1 7 6 2 5v6l-4 6-3 4 1 8 3 10v5l-4 1h-20l-1-5 5-15-1-4-6-9v-8l3-6 5-4z" fill="#FEFEFE"/>
<path transform="translate(1329,1276)" d="m0 0h14l10 2 9 4 9 6 4 5-3 1-1 4-2 2-6-1-14-7-5-1h-14l-13 4-11 5-4-2-2-3v-7l10-6 13-5z" fill="#555C60"/>
<path transform="translate(1334,1302)" d="m0 0h6l5 4 1 8-3 5-2 1h-8l-5-5v-8l3-4z" fill="#555C60"/>
</svg>
