<?xml version="1.0" encoding="UTF-8"?>
<svg version="1.1" viewBox="0 0 2000 2000" width="500" height="500" xmlns="http://www.w3.org/2000/svg">
<path transform="translate(0)" d="m0 0h2e3v2e3h-2e3z" fill="#FEFEFE"/>
<path transform="translate(994,516)" d="m0 0 14 1 16 5 17 10 16 13 12 11 10 10 9 11 13 17 12 17 12 19 13 24 9 20 7 21 2 12v12l-3 26-6 28-9 29-1 6 63 3 40 3 1 1 4 39 2 25 2 7 12 15 13 18 10 15 12 20 10 19 8 20 5 17 1 5v18l-4 15-5 12-11 21-10 15-9 12-11 14-9 11 1 7 1 2v18l-6 25-4 10-3 3-7 2-19 2-33 2-52 2-57 1h-142l-91-2-51-2-39-3-9-3-5-5-6-19-3-17v-15l1-6-4-6-26-34-13-21-9-17-6-16-2-9v-16l5-19 8-20 8-17 13-22 8-12 12-17 9-12 7-9h2v-3l2 1v112l1 37 3 48 3 29 3 12 6 3 6 1h109l56-1h187l54 1h47l1-4 3-59 2-68v-64l-2-65-3-37-25-2-72-3-38-1-131-1h-52l-61 1-91 3 1-9 2-4 6-2 33-3 64-3-7-19-6-23-5-27-2-20v-9l3-18 8-22 14-29 11-19 12-18 11-15 13-17 15-16 8-8 11-9 12-9 17-9z" fill="#A7A9AA"/>
<path transform="translate(994,703)" d="m0 0h43l27 3 25 5 15 5 12 6 8 7 2 4v15l-3 19-5 19-6 15-4 7h-40l-56-2-123-1-4-5-8-24-4-22v-17l8-8 14-8 17-6 26-6 28-4z" fill="#545C60"/>
<path transform="translate(920,862)" d="m0 0h158l24 1 8 4 6 7 3 8v30l-7 7-19 13-14 8-29 14-21 8-29 9-30 7-19 3-12 1h-12l-13-2-8-4-4-5-1-2v-7l5-10 9-10 12-10 9-6 16-10-19 9-17 11-11 8-13 12-8 12-3 2v-88l5-10 8-7 5-2z" fill="#565E62"/>
<path transform="translate(881,983)" d="m0 0 5 5 8 5 9 3 12 2h26l29-4 30-7h4l12 38 14 43 10 31v4h-137l-11-4-8-8-2-4-1-6z" fill="#565E62"/>
<path transform="translate(1118,924)" d="m0 0h1v160l-5 10-8 6-5 2-6 1h-22l-7-1-4-9-23-70-12-39-1-4 16-8 20-9 19-10 16-11 10-8z" fill="#575E62"/>
<path transform="translate(881,983)" d="m0 0 5 5-2 1-1 21-1 71h-1z" fill="#A7A9AA"/>
<path transform="translate(986,900)" d="m0 0 3 1-24 11-16 8-2-1 4-3-12 6-2-1 17-9 29-11z" fill="#A7A9AA"/>
<path transform="translate(882,879)" d="m0 0h1v84h3l1-3 1 2-6 8h-1v-88z" fill="#A7A9AA"/>
<path transform="translate(881,951)" d="m0 0h2v12h3l1-3 1 2-6 8h-1z" fill="#A5A7A8"/>
</svg>
