<?xml version="1.0" encoding="UTF-8"?>
<svg version="1.1" viewBox="0 0 2000 2000" width="500" height="500" xmlns="http://www.w3.org/2000/svg">
<path transform="translate(0)" d="m0 0h2e3v2e3h-2e3z" fill="#FDFDFD"/>
<path transform="translate(968,523)" d="m0 0 4 1 42 33 36 28 34 26 18 14 17 13 52 40 18 14 20 15 14 11 18 14 30 23 18 14 16 12 36 28 17 13 18 14 60 46 18 14 30 23 8 6v2h-39l-141-1v247l-16 8-27 11-43 17h-3l-2-346-5-5-16-13-16-12-34-26-30-23-77-59-13-10-21-16-38-29-5 2-11 9-13 10-14 11-27 21-15 12-17 13-28 22-13 10-16 13-17 13-17 14-26 20-15 12-14 11-9 7-1 2v302l-24 5-24 8-16 8-11 7-11 8-5 2-1-93-1-192h-163l5-5 16-13 14-11 25-20 28-22 15-12 42-33 16-13 17-13 17-14 13-10 28-22 15-12 84-66 15-12 17-13 16-13 17-13 16-13 13-10 15-12 42-33 16-13z" fill="#545B5F"/>
<path transform="translate(722,1200)" d="m0 0h19l17 2 17 4 19 7 17 9 12 8 11 9 16 16 10 14 8 14 8 19 4 15 2 14v36l-3 18-7 21-10 19-8 12-9 11-10 10-14 11-17 10-19 8-17 5-14 2h-29l-19-3-21-7-16-8-14-9-11-9-10-9-9-11-10-15-8-15-7-20-4-18-3-25v-17l3-21 8-24 10-19 12-16 8-9 14-11 15-10 16-8 13-5 20-4z" fill="#545B5F"/>
<path transform="translate(1434,1129)" d="m0 0 2 2 1 23v27l-2 21-4 18-6 12-14 19-15 16-9 9-14 11-15 11-18 11-27 14-24 11-28 11-33 11-45 12-43 9-32 5-29 4 4 43 1 13-5-2-48-32-19-12-46-30-18-12v-3l14-19 10-12 11-14 13-16 10-13 20-25 10-13 8-10 10-12 2 2 5 36 2 21 24-4 47-10 52-13 45-14 28-10 28-11 26-12 29-14 21-11 20-12 24-16 18-13z" fill="#545B5F"/>
<path transform="translate(839,854)" d="m0 0h272l6 3 5 6 4 10 1 6v27l-3 7-14 12-18 12-18 10-29 14-26 10-36 12-27 7-25 5-24 3h-34l-12-3-8-5-4-6v-9l4-9 7-9 7-8 14-11 14-10 16-9 19-10-8 2-25 12-18 10-12 8-15 11-13 12-10 13-4 7h-2v-105l2-11 6-9 5-4z" fill="#545B5F"/>
<path transform="translate(823 1e3)" d="m0 0 7 6 9 6 17 5 18 2h15l22-2 26-4 31-7 10-2 4 9 11 35 16 49 14 44v2h-184l-7-2-6-8-2-5-1-12z" fill="#545B5F"/>
<path transform="translate(1125,927)" d="m0 0h1v202l-3 8-4 6-8 3h-54l-4-8-16-49-14-43-15-47 1-3 27-11 27-13 19-11 12-8 13-10 14-12z" fill="#545B5F"/>
<path transform="translate(743,1262)" d="m0 0h21l15 4 6 3-1 10-4 19h-4l-5-4-7-2-8-1h-10l-12 3-8 6-6 7-4 9-2 6h59l1 2-2 12-2 3h-59l1 14 55 1-1 10-2 7h-50l5 13 7 9 9 6 10 3h12l13-3 9-5 3-2h3v30l-2 3-13 4-8 2h-19l-16-3-12-5-11-8-9-9-7-11-4-8-5-15-14-1-1-1 1-10 2-5 2-1h8v-15h-12l-1-1v-7l3-8 2-1 10-1 7-18 7-12 11-12 11-8 14-6z" fill="#FDFDFD"/>
<path transform="translate(1125,927)" d="m0 0h1v202h-1l-1-123v-53l-3 1-5 10v2h-2v2h-7l-3-2-7-1v-4l-8 4-5-1v2l-4 2-1 2-3 1-2-1v2l-6 3-6 1-1 3-7 2-3 1-2 2-5 1-2 2-5 1-1 2-2 2h-4l-1 6-1 4 2 6-7 2-1 4 1 7 1 4 2 4 1 5 1 6 4 10 3 11 1 5 3 4v10h2l2 4v4h2l1 5 3 7 7 21 4 7 2 5 9 3 4 1 1 2-1 2h-4v2l4 1h-16l-2-1-1 2-5-13-16-50-26-79-1-6 11-5 21-9 23-11 19-11 12-8 13-10 14-12z" fill="#5D656B"/>
<path transform="translate(746,1290)" d="m0 0h10l12 2 5 2-3 4 3 3 2 7 5 2 1 4-3 2-6-1v2h-2l5 5-1 2-1-1-59-1 2-9 5-9 8-8 8-4z" fill="#5D656B"/>
<path transform="translate(976,665)" d="m0 0 8 3v2l5 2v2l4 2 11 7 5 5v2l5 2 10 7 4 4 8 5v2l4 2 7 5v2l5 2 11 8 3 3 2 1v2l4 1 4 3v2l4 2 8 5v2l4 2 16 12 7 5v2l5 2 10 8 8 6 2 1v2l4 2 7 5v2l4 1 15 12 11 8 7 6 7 4 3 3v2l5 2 8 5 5 6 4 4 3 1 1 2 4 2-1 5-3-1-3-3-11-9-13-10-19-14-30-23-10-8-11-8-10-8-12-9-13-10-9-7-14-11-32-24-13-10-12-9-10-7v-2l-5-2-19-14-5-6z" fill="#5D656B"/>
<path transform="translate(764,1369)" d="m0 0 1 3h-3l-1 4 11 1 6 5v3h-2v3l-4 4-1 2h2l-1 5-9 3-6 1h-12l-10-3-9-6-6-7-5-10-1-6h50z" fill="#5D656B"/>
<path transform="translate(978,1321)" d="m0 0 4 4v7l-3 9v16l-1 3 5 5 6 5 7 4 5 4 6 3 3 3 5 3 15 10 7 6 5 2 11 9 1 5-6-2-13-9-15-10-31-20-3-1v-2l-5-2-11-7-5-3-4-2v-2l-4-1-4-2-4-7 14-18 4-1 1-3 3-1 1-4 2 2 1-2z" fill="#5D656B"/>
<path transform="translate(1056,1226)" d="m0 0h1l2 13v6l-3 5-4 20-3 3-6 4-1-1h-11l-9 2-3-1-1-3 3-6 3-3 4-5 2-6h-2v-2l4-2 3-4 1-5h2l2-5 3-3 1-2 6-2 2 2 2-2 2 1z" fill="#5D656B"/>
<path transform="translate(508,899)" d="m0 0 6 3v2h4l-1 4 9 4 10 1 3 3-4 2h-10l-1 2-5-1-9 1-6 2 1 3 17 1v1h-62v-1l13-1h-2l-4-1 5-6h2v-2l5-2 1-3 3-1 1-2 3-1 2-3 8-3v3l8-2z" fill="#5D656B"/>
<path transform="translate(996,1064)" d="m0 0 2 2 16 50 9 28v2h-184l-5-1v-4l-3-1h2l1-3 2-1h6l7 2 4 5h9l4 1h123l6-1 4-9 3-5 7-7v-13l-3-6v-8h-2l-2-7v-5h-2l-2-7v-5h-2l-1-6z" fill="#5E666C"/>
<path transform="translate(772,1330)" d="m0 0 2 3-1 5-3 5v7l-2 3v6h-1v-5h-55l-1-1v-14l59-1z" fill="#5D656B"/>
<path transform="translate(660,1464)" d="m0 0 6 1v3h7l1 4 6-1 4 3 8 2 5 2h6v2l4-1h16l8 4 16 2h11l4 8-8 1h-29l-19-3-4-2-2-2-17-6-6-4-9-5v-2l-5-1-3-2z" fill="#5D656B"/>
<path transform="translate(1125,873)" d="m0 0h1l1 6v27l-3 7-14 12-18 12-18 10-29 14-8 2 3-3 8-3 8-4 1-2h6v-3l-9 3-25 10-7 2h-3v-2h3v-2l10-3 6-3h4v-2l8-3 19-8 5-3 6-2h3v2h2v-2l2-2 1-2 4 2 6-7h2v-2h2l2-4 2-1 1-3h2v-2l5-2v-2h2v-2l4-4h2v-7l1-8 1-14z" fill="#5D656B"/>
<path transform="translate(976,1007)" d="m0 0 3 1 7 21 10 32v3l-2-1v-4h-2v-7h-2v-6h-2l-3-10-3-5-5-15v-5l-4 1-2 4-3-4-4 1-4 2-5 1-7 3-9 2-4-1-1 2-7 1-27 1h-36l-8-2v-1l18 1h15l22-2 26-4 31-7z" fill="#5D656B"/>
<path transform="translate(1069,1403)" d="m0 0 4 1 2 8 3 8h3 1l1 15-7-1-5-2-10-7-2-5-3-2 1-2 3-4 3-5h2v-2z" fill="#5D656B"/>
<path transform="translate(862,977)" d="m0 0 2 2 2 5 4 2 2 2 1 5 6 1h12l8 2 17-1 2-1 7 1v1l-18 2h-34l-12-3-6-3 2-1-1-10 6-2z" fill="#5D656B"/>
<path transform="translate(621,929)" d="m0 0h1l1 182 1 85 1 9-1 7h-2l-1-93z" fill="#5E666C"/>
<path transform="translate(1444,909)" d="m0 0 12 3 2 1v-2l8 1 2 4 5 1 5 5 1 3h-5l1-4-9 1-2-1-8 1-4-2h-3l-5-3-9-2v-2l4-3z" fill="#5E666C"/>
<path transform="translate(665,1339)" d="m0 0h12v15l-10 1-2 9h-1l-1-11-1-7h2v-2h2z" fill="#5D656B"/>
<path transform="translate(836,1136)" d="m0 0h6l7 2 4 5h9l4 2v1h-27l-5-1v-4l-3-1h2l1-3z" fill="#5D656B"/>
<path transform="translate(959,894)" d="m0 0 3 1-2 3-13 5-15 7-4-1-13 5-18 9-2-1 19-10 18-8 15-6z" fill="#61696F"/>
<path transform="translate(824,872)" d="m0 0 2 3v27h-1v71l2 8-2 3h-2v-105z" fill="#5E666C"/>
<path transform="translate(1327,923)" d="m0 0 5 1h89l14-1 10 1v2h-133v-1z" fill="#5E666C"/>
<path transform="translate(1054,1217)" d="m0 0 2 2v11l-5 2-1-2-6 2-1 3-3 2-2 5-2 1v5l-5 4-4-1 12-16 11-13z" fill="#565D61"/>
<path transform="translate(976,1007)" d="m0 0 3 1 7 21 10 32v3l-2-1v-4h-2v-7h-2v-6h-2l-3-10-3-5-5-15v-5z" fill="#5E666C"/>
<path transform="translate(1425,1146)" d="m0 0 3 1 1 7-1 4h-2l-2 4-5 1v-3h-4l1-6 5-5 4-1z" fill="#5E666C"/>
<path transform="translate(880,1323)" d="m0 0h1l1 8v36l-1 7-1-2h-2l-1-6 1-15z" fill="#5E666C"/>
<path transform="translate(594,1318)" d="m0 0 2 4 1 12 1 1v15l-2 14h-1l-2-19v-17z" fill="#5E666C"/>
<path transform="translate(629,1435)" d="m0 0 5 2 5 5v2l4 2 10 10v4l-7-3v-2l-4-2v-2l-4-2v-2l-3-1-2-8-4-2z" fill="#5E666C"/>
<path transform="translate(621,1111)" d="m0 0h2l1 85 1 9-1 7h-2z" fill="#5E666C"/>
<path transform="translate(949,1350)" d="m0 0 4 4v2l5 2 3 1v2l4 1 9 6 12 7 1 4-9-5-30-20v-3z" fill="#555D61"/>
<path transform="translate(1187,1357)" d="m0 0 3 1v2l-9 2-8 2-3-1v2l-11 2-4-2h3v-2l9-2h5l4-2h7z" fill="#5E666C"/>
<path transform="translate(1217,1348)" d="m0 0 3 1-2 1-2 4-10 1-2 2-10 1 1-4 14-3 3-2z" fill="#5E666C"/>
<path transform="translate(681,1209)" d="m0 0 5 1-4 2-1 3-2-2-1 4-4-1-1 3-2-2-2 4-3-1v2h-2v-2l-3-1 15-8z" fill="#5C646A"/>
<path transform="translate(1067,1429)" d="m0 0 7 4 7 1 1-4 2 12-5-2-12-8z" fill="#555D61"/>
<path transform="translate(738,1259)" d="m0 0h7v1h14l3-1 2 1 8 1-3 2h-32z" fill="#5E666C"/>
<path transform="translate(712,1201)" d="m0 0h7l2 4-8 1h-8l-5-2v-1z" fill="#5C646A"/>
<path transform="translate(648,1228)" d="m0 0 2 1-1 4-3 3h-2l-2 4-2 2-2-2 2-6z" fill="#5D656B"/>
<path transform="translate(849,951)" d="m0 0 2 2-12 11-4 2-1-3 4-2 1-3 6-3z" fill="#5E666C"/>
<path transform="translate(680,1310)" d="m0 0 3 1-3 10-1 1-12 1v-2l9-1 2-1v-7h2z" fill="#5D656B"/>
<path transform="translate(1061,1263)" d="m0 0h1l1 13h5v1l-10 1-1-3 2-7z" fill="#5D656B"/>
<path transform="translate(949,1350)" d="m0 0 4 4v2l5 2 3 1v2l4 1 2 4-9-5-11-8z" fill="#565E62"/>
<path transform="translate(684,1481)" d="m0 0 5 1 15 6v1l-8-1-12-5z" fill="#565D61"/>
<path transform="translate(1057,951)" d="m0 0h5v2l-20 9-5 1 3-3 8-3 8-4z" fill="#5E666C"/>
<path transform="translate(835,1014)" d="m0 0 10 3 11 3v1h-11l-10-5z" fill="#5D656B"/>
<path transform="translate(878,940)" d="m0 0 2 1-1 2h-2v2h-3l-2 4-8 7h-2l2-4z" fill="#5E666C"/>
<path transform="translate(1034,1242)" d="m0 0 2 1v5l-5 4-4-1z" fill="#555C61"/>
<path transform="translate(972,1008)" d="m0 0h4l-1 4h-2l-2 4-3-4v-3z" fill="#5A6167"/>
<path transform="translate(609,1393)" d="m0 0 4 5 1 9-3-3 1-2h-3l-1-4z" fill="#5D656B"/>
<path transform="translate(622,1196)" d="m0 0h2l1 9-1 7h-2z" fill="#5D656B"/>
<path transform="translate(1147,1365)" d="m0 0h6l1 3-9 1-1-2z" fill="#5E666C"/>
<path transform="translate(1042,1231)" d="m0 0 2 1-1 3-3 2-2 5-4-1z" fill="#575E63"/>
<path transform="translate(823,973)" d="m0 0h2l2 8-2 3h-2z" fill="#5C646A"/>
</svg>
