<?xml version="1.0" encoding="UTF-8"?>
<!DOCTYPE svg PUBLIC "-//W3C//DTD SVG 1.1//EN" "http://www.w3.org/Graphics/SVG/1.1/DTD/svg11.dtd">
<svg xmlns="http://www.w3.org/2000/svg" version="1.1" width="500px" height="500px" style="shape-rendering:geometricPrecision; text-rendering:geometricPrecision; image-rendering:optimizeQuality; fill-rule:evenodd; clip-rule:evenodd" xmlns:xlink="http://www.w3.org/1999/xlink">
<g><path style="opacity:1" fill="#fefefe" d="M -0.5,-0.5 C 166.167,-0.5 332.833,-0.5 499.5,-0.5C 499.5,166.167 499.5,332.833 499.5,499.5C 332.833,499.5 166.167,499.5 -0.5,499.5C -0.5,332.833 -0.5,166.167 -0.5,-0.5 Z"/></g>
<g><path style="opacity:1" fill="#535a5e" d="M 370.5,229.5 C 356.167,230.167 341.833,230.833 327.5,231.5C 327.5,252.167 327.5,272.833 327.5,293.5C 320.351,295.772 313.351,298.439 306.5,301.5C 305.833,272.833 305.167,244.167 304.5,215.5C 283.853,199.03 263.02,182.697 242,166.5C 220.69,182.976 199.523,199.643 178.5,216.5C 177.5,242.158 177.167,267.825 177.5,293.5C 169.561,293.811 162.561,296.478 156.5,301.5C 155.833,278.167 155.167,254.833 154.5,231.5C 141.5,230.833 128.5,230.167 115.5,229.5C 157.516,196.319 199.682,163.319 242,130.5C 285.008,163.35 327.841,196.35 370.5,229.5 Z"/></g>
<g><path style="opacity:1" fill="#535a5e" d="M 258.5,240.5 C 253.607,241.796 248.94,243.462 244.5,245.5C 234.263,248.208 223.929,248.874 213.5,247.5C 211.623,246.341 211.123,244.674 212,242.5C 214.362,238.973 217.196,235.973 220.5,233.5C 224.357,231.161 228.357,228.994 232.5,227C 227.476,227.178 223.143,229.011 219.5,232.5C 213.887,235.113 209.554,239.113 206.5,244.5C 205.507,236.016 205.174,227.349 205.5,218.5C 205.751,216.83 206.418,215.33 207.5,214C 231.167,213.333 254.833,213.333 278.5,214C 279,214.5 279.5,215 280,215.5C 280.667,219.5 280.667,223.5 280,227.5C 273.485,233.003 266.318,237.337 258.5,240.5 Z"/></g>
<g><path style="opacity:1" fill="#9a9ea0" d="M 220.5,233.5 C 220.5,232.833 220.167,232.5 219.5,232.5C 223.143,229.011 227.476,227.178 232.5,227C 228.357,228.994 224.357,231.161 220.5,233.5 Z"/></g>
<g><path style="opacity:1" fill="#989c9f" d="M 115.5,229.5 C 128.5,230.167 141.5,230.833 154.5,231.5C 140.829,231.667 127.163,231.5 113.5,231C 114.044,230.283 114.711,229.783 115.5,229.5 Z"/></g>
<g><path style="opacity:1" fill="#9fa2a5" d="M 370.5,229.5 C 371.289,229.783 371.956,230.283 372.5,231C 357.504,231.5 342.504,231.667 327.5,231.5C 341.833,230.833 356.167,230.167 370.5,229.5 Z"/></g>
<g><path style="opacity:1" fill="#545b5f" d="M 279.5,232.5 C 280.497,248.992 280.83,265.658 280.5,282.5C 280.196,283.15 279.863,283.817 279.5,284.5C 274.198,285.663 268.864,285.829 263.5,285C 262.663,283.989 262.33,282.822 262.5,281.5C 259.167,270.5 255.833,259.5 252.5,248.5C 262.293,244.44 271.293,239.106 279.5,232.5 Z"/></g>
<g><path style="opacity:1" fill="#c8cbcc" d="M 258.5,240.5 C 254.37,243.324 249.703,244.991 244.5,245.5C 248.94,243.462 253.607,241.796 258.5,240.5 Z"/></g>
<g><path style="opacity:1" fill="#9ea1a3" d="M 279.5,232.5 C 279.56,231.957 279.893,231.624 280.5,231.5C 281.827,248.662 281.827,265.662 280.5,282.5C 280.83,265.658 280.497,248.992 279.5,232.5 Z"/></g>
<g><path style="opacity:1" fill="#cbcdce" d="M 244.5,245.5 C 241.386,246.956 238.052,248.122 234.5,249C 227.833,249.667 221.167,249.667 214.5,249C 213.944,248.617 213.611,248.117 213.5,247.5C 223.929,248.874 234.263,248.208 244.5,245.5 Z"/></g>
<g><path style="opacity:1" fill="#dedcdd" d="M 205.5,218.5 C 205.174,227.349 205.507,236.016 206.5,244.5C 205.167,246.833 205.167,249.167 206.5,251.5C 205.506,261.319 205.173,271.319 205.5,281.5C 204.167,260.5 204.167,239.5 205.5,218.5 Z"/></g>
<g><path style="opacity:1" fill="#535a5e" d="M 206.5,251.5 C 210.586,253.983 215.086,255.316 220,255.5C 226.499,254.444 232.999,253.444 239.5,252.5C 241.144,252.286 242.644,252.62 244,253.5C 247.401,263.87 250.901,274.204 254.5,284.5C 238.848,285.499 223.181,285.833 207.5,285.5C 206.4,284.395 205.733,283.062 205.5,281.5C 205.173,271.319 205.506,261.319 206.5,251.5 Z"/></g>
<g><path style="opacity:1" fill="#aaadaf" d="M 252.5,248.5 C 255.833,259.5 259.167,270.5 262.5,281.5C 258.734,272.382 255.234,263.048 252,253.5C 251.22,251.613 251.387,249.946 252.5,248.5 Z"/></g>
<g><path style="opacity:1" fill="#8b8f92" d="M 154.5,231.5 C 155.167,254.833 155.833,278.167 156.5,301.5C 156.44,302.043 156.107,302.376 155.5,302.5C 154.5,278.843 154.167,255.176 154.5,231.5 Z"/></g>
<g><path style="opacity:1" fill="#545b5f" d="M 357.5,281.5 C 361.809,297.731 357.142,310.898 343.5,321C 320.918,335.249 296.252,343.416 269.5,345.5C 270.18,350.213 270.18,354.88 269.5,359.5C 258.328,352.415 247.328,345.081 236.5,337.5C 245.144,326.356 253.977,315.356 263,304.5C 264.379,309.036 264.879,313.703 264.5,318.5C 291.16,314.447 316.494,306.28 340.5,294C 346.63,290.356 352.297,286.189 357.5,281.5 Z"/></g>
<g><path style="opacity:1" fill="#a8aaac" d="M 239.5,252.5 C 241.223,251.193 243.057,251.193 245,252.5C 249.014,263.706 252.514,275.04 255.5,286.5C 239.325,286.83 223.325,286.496 207.5,285.5C 223.181,285.833 238.848,285.499 254.5,284.5C 250.901,274.204 247.401,263.87 244,253.5C 242.644,252.62 241.144,252.286 239.5,252.5 Z"/></g>
<g><path style="opacity:1" fill="#c0c2c4" d="M 304.5,215.5 C 305.167,244.167 305.833,272.833 306.5,301.5C 306.44,302.043 306.107,302.376 305.5,302.5C 304.5,273.508 304.167,244.508 304.5,215.5 Z"/></g>
<g><path style="opacity:1" fill="#555c60" d="M 175.5,299.5 C 196.498,298.24 210.998,307.24 219,326.5C 222.066,359.101 207.232,374.268 174.5,372C 154.809,363.803 145.975,348.97 148,327.5C 152.025,312.976 161.191,303.643 175.5,299.5 Z"/></g>
<g><path style="opacity:1" fill="#f7f7f7" d="M 178.5,328.5 C 177.957,328.56 177.624,328.893 177.5,329.5C 182.651,330.167 187.651,330.834 192.5,331.5C 192.5,332.5 192.5,333.5 192.5,334.5C 187.5,334.5 182.5,334.5 177.5,334.5C 177.5,335.5 177.5,336.5 177.5,337.5C 181.634,338.485 185.968,338.818 190.5,338.5C 190.5,339.5 190.5,340.5 190.5,341.5C 186.702,342.483 182.702,342.817 178.5,342.5C 181.721,350.989 187.221,352.656 195,347.5C 195.667,350.167 195.667,352.833 195,355.5C 182.536,360.026 174.203,356.026 170,343.5C 168.644,342.62 167.144,342.286 165.5,342.5C 165.639,339.412 166.639,336.745 168.5,334.5C 167.5,334.5 166.5,334.5 165.5,334.5C 164.843,331.159 166.176,329.159 169.5,328.5C 175.211,315.768 183.877,312.601 195.5,319C 195.204,320.888 194.704,322.722 194,324.5C 193.5,324 193,323.5 192.5,323C 189.167,322.333 185.833,322.333 182.5,323C 180.536,324.451 179.203,326.284 178.5,328.5 Z"/></g>
<g><path style="opacity:1" fill="#a9adaf" d="M 178.5,328.5 C 183.349,329.166 188.349,329.833 193.5,330.5C 193.376,331.107 193.043,331.44 192.5,331.5C 187.651,330.834 182.651,330.167 177.5,329.5C 177.624,328.893 177.957,328.56 178.5,328.5 Z"/></g>
<g><path style="opacity:1" fill="#a8acae" d="M 177.5,337.5 C 182.167,337.5 186.833,337.5 191.5,337.5C 191.768,339.099 191.434,340.432 190.5,341.5C 190.5,340.5 190.5,339.5 190.5,338.5C 185.968,338.818 181.634,338.485 177.5,337.5 Z"/></g>
</svg>
