<?xml version="1.0" encoding="UTF-8"?>
<svg version="1.1" viewBox="0 0 2000 2000" width="500" height="500" xmlns="http://www.w3.org/2000/svg">
<path transform="translate(0)" d="m0 0h2e3v2e3h-2e3z" fill="#FDFDFD"/>
<path transform="translate(696,670)" d="m0 0h592l22 1 9 3 8 7 10 14 4 9 2 10v82l-5 6-11 9-13 11-19 14-15 10-19 12-21 12-33 17-21 10-14 7-38 16-47 18-41 14-41 12-38 10-46 10-38 6-35 4-13 1-28 1-22-1-25-4-17-5-13-7-8-8-4-9v-18l6-16 7-11 11-14 12-13 9-9 11-9 13-11 11-8 14-10 19-12 24-14 22-12 23-12 26-12-8 3-8 1-24 10-25 11-25 12-22 12-21 12-22 14-15 10-19 14-10 8-10 9-8 7-6 5-5 5-10 11-10 13-9 15-5 9-2 2-1 4v32l2 6 8 10 9 8 14 8 12 5 21 6 24 4 25 2h38l34-3 28-3 50-9 44-10 34-9h6l10 31 17 52 12 38 14 41 16 50 20 61 12 36 2 5-1 1h-419l-9-3-8-7-6-8-7-14-2-8-1-10v-253l-1-21v-39l1-14v-174l1-63 3-13 6-12 7-9 7-7 6-4z" fill="#535A5E"/>
<path transform="translate(1343,832)" d="m0 0h1l-1 119v308l-1 31-3 12-7 12-9 10-6 4-13 2h-117l-4-9-12-36-21-65-13-40-11-33-16-50-14-42-14-43-5-15-2-4 9-4 31-13 39-17 33-16 30-16 22-13 19-12 23-16 18-14 14-12 12-11 13-12z" fill="#535A5E"/>
<path transform="translate(1536,1336)" d="m0 0h14l7 1v1h-12l4 1 11 1 16 6 11 6 8 6v2l4 2 24 24 7 8-2-3 1-2 8 9 9 12 9 14 2 3-1 3-6-9v3l7 11 7-1 1-1h6l8 7 5 8 1 10-5 10-18 18-9 8-7 3-11-2-8-6-5-8v-14l6-4-4-4-8-5h-10l-12-1-6 4-8 8h-2l-1 3-6 5-6 7-8 7-3 1v4l5 5v2h4l4 5v4l4 2 20 20h4l5 6 6 5 7 8 2 4 4 2 13 13 8 7 17 17 5 7 3 9v8l-4 11-8 10-5 4-7 2h-15l-9-4-6-4-13-12-7-8-36-36-7-8-6-6v-2h-2l-9-11-7-7-2-4h-2l-7 8-14 14-14 16-3-1 8-9 14-14 2-3h2l2-4h2l2-4 3-5-7 6-14 15-7 8-19 19-7 8-9 9-7 8-9 9-8 7-9 8-6 2-8-1-10-7-12-11-9-10-6-8v-2l-3-1-1-4 2-10 3-2 1 1 5-5 11-10 8-7 11-11 8-7 16-15 8-8 8-7 16-15 6-6h2l1-5-5 2-2 4-5 5h-2l-2 4-8 7-13 13h-2v2l-6 5-2-1 20-20 8-7 15-15-2-4-9-8-6-8-6 1-21 5-11 2h-8l-5-8v1l-1 3-12-17v-2l-5-5-14-21-3-4-3-9-2-4 6-8 8-7 10-9 8 6 1 5 4 2 16 16 4 6v2h2l2-2v2l5-3 3 1 5-3 3-4 2-9-3-5-8-8-8-7-11-12-4-5 2-5 4-5 5-5 12-11 5 2 12 8 5 2v3l4-1 8 7 3 2h3l3 4 4 2 4 3 3 3 5 2 4 2v2l4 2 1 4-3-1-1 12-3 12-1 6h-2l-1 13 2 1 1-2 2 4 4 4v2l9 8v2h4l5 5 5 4 2-5 25-25 7-8 7-10 2-9v-3h-1l-1-10-6-9-7-6-10-6-10-4-5-1v-1l10 1-10-3h-25l-1-1-1-12 8-3 20-4 6-1h8z" fill="#575E62"/>
<path transform="translate(1567,1416)" d="m0 0 4 4 7 8 9 9 6 3-5 5-15 14-12 12-1 2h-2l-2 4-16 15-13 13 1 4v7l-4 6-4 5-5 5-16 17-7 8-9 9-7 8-26 26-7 8-20 20-6 4-5 1-7-3-10-8-16-16-5-9 1-6 7-9 17-16 18-18 8-7 13-13 8-7 10-10 8-7 8-8 8-7 11-9h6l6 2 59-59z" fill="#FCFCFC"/>
<path transform="translate(1429,1347)" d="m0 0 5 2 27 18 14 9 13 8-1 10-7 31-1 4v3l14 14 8 7 9 9v2l3 1-4 5-8 6-8-1-16 8-8-10-16-17-9 1-34 8h-5l-10-15-12-17-13-18-3-6 13-13h2v-2l4 2 19 19 7 6 5 5 3 2 2-2 10-3 8-5 4-10v-9l-8-10-20-20-4-3 1-4 8-7z" fill="#8A8F90"/>
<path transform="translate(1544,1496)" d="m0 0 4 1 11 12 12 11 8 7 8 8 8 7 7 6v2h2l6 7 8 7 12 11 13 12 8 8 5 9 1 11-3 8-6 8-9 5-5 1h-7l-9-5-10-9-9-9-7-8-11-12-14-15-11-12-12-12-7-8-10-10-1-6-2-1 8-11 3-6 3-5 6-9z" fill="#8C9192"/>
<path transform="translate(1509,1494)" d="m0 0 5 1 8 7 3 4v8l-3 6-11 12-9 11-11 11-9 11-61 61-6 4-7-2-6-4-5-7v-5l6-7 3-5 5-5 6-7h2v-2h2v-2h2v-2l5-4 1-2h2v-2h2v-2l7-6 5-6h2v-2h2v-2h2v-2h2l2-4 3-1v-2h2v-2h2v-2l8-7 4-2v-2l13-13 8-7h2l2-4 3-1 1-3 4-5z" fill="#8B9091"/>
<path transform="translate(1382,1395)" d="m0 0 3 3 4 6 8 9 12 12 8 6 8 1 6 3 11 9 5 6v3l4 2-25 6-16 4h-5l-10-15-12-17-13-18-3-6 13-13z" fill="#FEFEFE"/>
<path transform="translate(1429,1347)" d="m0 0 5 2 27 18 14 9 13 8-1 10-7 29-4-2-9-10-8-8-7-8-18-18-8-7-7-7-2-1 1-4z" fill="#FEFEFE"/>
<path transform="translate(1516,1538)" d="m0 0 2 2-6 8-6 5-14 16-5 5-4 5-2 4-26 26-6 7-6 5-6 7-12 9-8 4-12-3-14-8-13-12-7-8-3-5 1-6 4 5 11 13 9 9 11 8 7 3 8-1 8-6 9-9 8-7 8-8 7-8 9-9 7-8 19-19 7-8 10-11z" fill="#8C9192"/>
<path transform="translate(1591,1448)" d="m0 0 5 1-16 16h-2l-1 3-6 5-6 7-8 7-3 1v4l5 5v2h4l4 5v4l4 2 20 20h4l5 6 6 5 7 8 2 4 4 2 13 13 8 7 13 13h-3l-11-11-8-6v-2l-4-2-11-9-15-15-7-6-10-10-8-7-16-15-9-9-2-3 1-4 4-6 8-7 5-5 10-9 11-11z" fill="#8F9495"/>
<path transform="translate(1650,1596)" d="m0 0 4 4 2 4 1 11-3 8-6 8-8 4h-7l-6-3v-2l-4-2-7-7-5-6v-2l6-1 2-5 3-4h2v-2l9-1 2 2-7 3-3 3-1 7 3 7 7 4 6-1 5-5 1-7 3-1 1-7-2-4z" fill="#FEFEFE"/>
<path transform="translate(1631,1602)" d="m0 0 8 1 6 5 1 2v10l-4 5-4 2-7-1-5-4-3-7 1-7z" fill="#5E6468"/>
<path transform="translate(1517,1536)" d="m0 0h3v2l4 2 9 9 7 8 17 17 7 8 15 16 11 12 7 8-1 2-41-41-7-8-6-6v-2h-2l-9-11-7-7-2-4h-2l-7 8-14 14-14 16-3-1 8-9 14-14 2-3h2l2-4h2l2-4 3-5z" fill="#8A8F90"/>
<path transform="translate(661,1083)" d="m0 0h1l1 204 3 12 3 4 1 5 5 6 1 2 4 3-1 3-6-5-9-16-3-11-1-10v-156z" fill="#8B9091"/>
<path transform="translate(1549,1339)" d="m0 0 11 1 16 6 11 6 8 6v2l4 2 24 24 7 8-2-3 1-2 8 9 9 12 9 14 2 3-1 3-6-9-3 1-7-11-11-13-7-8-9-9v-2h-2l-7-8-12-11-9-7-9-5-16-5-11-2z" fill="#A3A7A8"/>
<path transform="translate(1565,1352)" d="m0 0 12 4 2-1v2l5 2 3 2v2l4 2 8 7 7 8 20 20 9 11 7 10 2 7 1 4-4-4-6-10-9-11-11-12-26-26-16-12-8-3z" fill="#FCFCFC"/>
<path transform="translate(1585,1366)" d="m0 0 6 4 33 33 3 5-3 3-8-8v-2l-4-2-9-9h-4l-13-13 3-1-5-5z" fill="#898E8F"/>
<path transform="translate(1444,1462)" d="m0 0 9 1 7 6 7 9v2h3l-1 2h-3l-9-8-6-8-6 1-21 5-11 2h-8l-2-2 1-3v2l24-6z" fill="#939798"/>
<path transform="translate(1516,1538)" d="m0 0 2 2-6 8-6 5-14 16-31 31-1 2h-2v2l-8 7-11 11-2-1 15-15 7-8 9-9 7-8 19-19 7-8 10-11z" fill="#FEFEFE"/>
<path transform="translate(1365,1416)" d="m0 0 4 4 8 11 13 18 10 15v3l-1 3-12-17v-2l-5-5-14-21-3-4z" fill="#8D9293"/>
<path transform="translate(1536,1336)" d="m0 0h14l7 1v1h-12v1l-20 3-14 3-6 1h-9v2l-3-1v-2l8-3 20-4 6-1h8z" fill="#8D9293"/>
<path transform="translate(1622,1388)" d="m0 0 4 2 5 4-3-3 1-2 8 9 9 12 9 14 2 3-1 3-6-9-3 1-7-11-11-13-7-8z" fill="#ACB0B1"/>
<path transform="translate(971,761)" d="m0 0h3v2l-16 6-24 10-6 2-6 1-4 2h-8l3-2 27-11 23-8z" fill="#8F9495"/>
<path transform="translate(1559,1412)" d="m0 0h1l-1 7-10 10-3 4h-2l-2 4h-2l-2 4h-2l-2 4h-2l-1 3-8 7-5 3 2-5 26-26 9-11z" fill="#FAFAFA"/>
<path transform="translate(1369,1599)" d="m0 0 4 5 11 13 9 9 11 8 4 4-5-1-13-8-12-11-7-8-3-5z" fill="#8F9394"/>
<path transform="translate(1483,1426)" d="m0 0 4 4 1-2 2 4 4 4v2l9 8v2h4l5 5 5 4 2-5 4-3-4 8 2 1-3 3-4-2-5-2-13-13-8-7-6-6z" fill="#949899"/>
<path transform="translate(1544,1337)" d="m0 0 13 1 13 4 14 6 12 9 29 29 7 8-1 2-8-8-7-8-19-19-10-8-16-8-11-4-11-1h-9z" fill="#FEFEFE"/>
<path transform="translate(1643,1424)" d="m0 0 4 5 10 16v2h2l4 5 3 5h3l1 4 2 1-3 4-2-1v-4l-10-9-9-12-4-6-1-6z" fill="#8D9293"/>
<path transform="translate(1665,1433)" d="m0 0h6l8 7 5 8 1 10-3-1-2-5-1-1-2-6h-2v-2l-4-2-7-3-3-3z" fill="#8C9192"/>
<path transform="translate(1624,1465)" d="m0 0 2 1v12l2 8 4 2 5 4 12 1h2v2l-5 2-11-2-8-6-5-8v-14z" fill="#898E8F"/>
<path transform="translate(1535,1343)" d="m0 0 6 1h8l12 3 12 5 4 2 1 4-8-4-10-2-9-3h-5l-7-2-4-2z" fill="#878C8E"/>
<path transform="translate(1520,1360)" d="m0 0 14 1 13 7 9 9 5 8-1 12h-1l-1-10-6-9-7-6-10-6-10-4-5-1z" fill="#8F9394"/>
<path transform="translate(1469,1484)" d="m0 0 1 2h3l-1 5-1-2 1-2-5 2-2 4-5 5h-2l-2 4-8 7-13 13h-2v2l-6 5-2-1 20-20 8-7 15-15z" fill="#747A7C"/>
<path transform="translate(1630,1608)" d="m0 0h7l2 1v9l-3 2-5-1-3-5 1-5z" fill="#FEFEFE"/>
<path transform="translate(1638,1407)" d="m0 0 6 1 7 9 6 10-1 3-6-9-3 1-7-11z" fill="#B4B7B8"/>
<path transform="translate(1483,1426)" d="m0 0 4 4 1-2 2 4 4 4v2l6 6v2l-4-2-8-7-6-6z" fill="#8D9293"/>
<path transform="translate(660,960)" d="m0 0 2 4-1 4v32l2 8h-2v19h-1l-1-21v-39z" fill="#8B9091"/>
<path transform="translate(1549,1339)" d="m0 0 11 1 16 6 5 3v2l2 1-4-1-5-3-16-5-11-2z" fill="#B7BABA"/>
<path transform="translate(1504,1555)" d="m0 0 2 1-7 7-14 16-3-1 8-9 5-5z" fill="#8B9091"/>
<path transform="translate(1556,1412)" d="m0 0 3 1-11 12-7 8-16 16-2-1 21-21 7-8z" fill="#828788"/>
<path transform="translate(1629,1410)" d="m0 0 5 5 7 11 2 5-6-5-3-3-2-5-3-1v-3h-3l1-3z" fill="#7F8586"/>
<path transform="translate(1379,1576)" d="m0 0 2 1-9 10-3 4 1 2-1 6-3-3 1-10 4-4 1 1 5-5z" fill="#9FA3A4"/>
<path transform="translate(1660,1442)" d="m0 0 9 5 4 6v2l-5-1-5-5-3-5z" fill="#B4B8B8"/>
<path transform="translate(1393,1395)" d="m0 0 4 2 16 16 1 4-7-6-14-14z" fill="#8B9091"/>
<path transform="translate(1593,1440)" d="m0 0 7 1 11 4v3l-12-3-8-3z" fill="#8F9494"/>
<path transform="translate(1559,1412)" d="m0 0h1l-1 7-6 6h-2l-1-3z" fill="#F3F3F3"/>
<path transform="translate(1552,1365)" d="m0 0h5l8 9-2 3-11-11z" fill="#808687"/>
<path transform="translate(1492,1395)" d="m0 0h1l-1 10-1 1-2 11-1 4h-2v-5h2l1-12z" fill="#FEFEFE"/>
<path transform="translate(1384,1384)" d="m0 0 8 6 1 5-6-4-3-3-5 1z" fill="#909495"/>
<path transform="translate(1643,1408)" d="m0 0 5 5 9 14-1 3-13-20z" fill="#7A8081"/>
<path transform="translate(1557,1338)" d="m0 0 9 1 11 4 7 4-2 1-17-7-8-2z" fill="#8B9091"/>
<path transform="translate(1440,1513)" d="m0 0 2 2-7 7h-2v2l-6 5-2-1z" fill="#8B9091"/>
<path transform="translate(1628,1389)" d="m0 0 7 6 8 11-1 2-4-4-9-12z" fill="#828789"/>
<path transform="translate(1635,1480)" d="m0 0 7 5 6-1 3-3h2l-2 4-4 3-6-1-6-5z" fill="#8B9091"/>
<path transform="translate(1414,1375)" d="m0 0 7 6 9 8-1 2-10-9-5-5z" fill="#8B9091"/>
<path transform="translate(1591,1448)" d="m0 0 5 1-3 3-8 5-2-1 7-6z" fill="#FEFEFE"/>
<path transform="translate(1552,1503)" d="m0 0 7 6 2 3h-5l-4-4z" fill="#FEFEFE"/>
<path transform="translate(1469,1484)" d="m0 0 1 2h3l-1 5-1-2 1-2-5 2-2 4-3 2v-3z" fill="#808687"/>
<path transform="translate(1403,1469)" d="m0 0 1 2 7-1 6 1v1l-7 2h-5l-2-2z" fill="#A7ABAC"/>
<path transform="translate(1549,1339)" d="m0 0 11 1 3 2-5 1-11-2z" fill="#9DA1A2"/>
<path transform="translate(1655,1632)" d="m0 0v3l-7 6-7 1 3-2z" fill="#8B9091"/>
<path transform="translate(1566,1400)" d="m0 0h1l1 8-1 6-2-1v-12z" fill="#8B9091"/>
<path transform="translate(1557,1380)" d="m0 0 3 3 1 4-1 10h-1l-1-10-2-5z" fill="#939798"/>
<path transform="translate(1367,1586)" d="m0 0 2 2 2-1-2 4 1 2-1 6-3-3z" fill="#868B8D"/>
</svg>
