<?xml version="1.0" encoding="UTF-8"?>
<svg version="1.1" xmlns="http://www.w3.org/2000/svg" width="500" height="500">
<path d="M0 0 C165 0 330 0 500 0 C500 165 500 330 500 500 C335 500 170 500 0 500 C0 335 0 170 0 0 Z " fill="#FEFEFE" transform="translate(0,0)"/>
<path d="M0 0 C1.26743546 -0.00708481 2.53487091 -0.01416962 3.8407135 -0.02146912 C5.24810827 -0.0191752 6.65550269 -0.01666549 8.06289673 -0.01396179 C9.54289508 -0.01830831 11.02289117 -0.02349125 12.50288391 -0.02944946 C16.52566625 -0.04285848 20.54835474 -0.04341594 24.57115507 -0.04088616 C27.92852049 -0.03981756 31.28586683 -0.04469707 34.64322817 -0.04949158 C42.5642194 -0.06059373 50.4851632 -0.06102046 58.40615845 -0.05497742 C66.57854041 -0.04893843 74.75075016 -0.06124506 82.92310274 -0.08254749 C89.93805648 -0.10016087 96.9529554 -0.10616519 103.96793044 -0.10290974 C108.15826765 -0.10109603 112.34848208 -0.10374158 116.53879929 -0.11762428 C120.480311 -0.13019348 124.42155434 -0.12826727 128.3630619 -0.11521339 C129.80904162 -0.11284592 131.25504017 -0.11558846 132.70099831 -0.12383652 C134.67621053 -0.1342903 136.65149908 -0.12440828 138.62670898 -0.11352539 C140.28423974 -0.113777 140.28423974 -0.113777 141.97525597 -0.1140337 C145.3494077 0.31239504 147.2338982 1.22830135 149.94033813 3.26069641 C150.62541979 4.91987854 151.29119584 6.58712642 151.94033813 8.26069641 C157.58567966 13.78842666 163.06963893 17.13751834 171.04190063 17.22554016 C172.94033813 17.26069641 172.94033813 17.26069641 173.94033813 18.26069641 C174.15843569 22.51818068 174.12612974 26.78115365 174.12564087 31.0436554 C174.12782556 33.18586641 174.14597325 35.32756112 174.16494751 37.46968079 C174.16788172 38.82579881 174.16986633 40.18191929 174.17080688 41.53804016 C174.17491577 42.77803772 174.17902466 44.01803528 174.18325806 45.29560852 C173.94033813 48.26069641 173.94033813 48.26069641 171.94033813 50.26069641 C169.31533813 50.38569641 169.31533813 50.38569641 166.94033813 50.26069641 C166.66778198 50.9770929 166.39522583 51.69348938 166.1144104 52.43159485 C164.94710065 55.24440113 163.61513436 57.8547851 162.15518188 60.52632141 C161.62473267 61.49827454 161.09428345 62.47022766 160.54776001 63.47163391 C159.99668579 64.47452454 159.44561157 65.47741516 158.87783813 66.51069641 C158.32289673 67.52905579 157.76795532 68.54741516 157.19619751 69.59663391 C153.0752332 77.12580134 153.0752332 77.12580134 151.94033813 78.26069641 C151.8417783 80.9423836 151.80733983 83.599051 151.81436157 86.28120422 C151.81249344 87.12187943 151.81062531 87.96255463 151.80870056 88.82870483 C151.80468643 90.66101524 151.8026208 92.49333068 151.80223846 94.32564545 C151.79883485 98.21829555 151.77748555 102.11077681 151.7570076 106.00336838 C151.71892605 113.25827427 151.68772249 120.51300353 151.68984985 127.76802063 C151.69063648 132.80740913 151.66729061 137.84618542 151.62796783 142.88541412 C151.61749512 144.80710346 151.61599313 146.72886336 151.62361908 148.6505661 C151.6332314 151.34192164 151.6120764 154.03142243 151.58389282 156.72261047 C151.59408951 157.5165773 151.60428619 158.31054413 151.61479187 159.12857056 C151.54311133 162.94740415 151.19433476 164.94022886 148.79693985 167.96502209 C145.40139498 170.69381173 143.90336027 170.88661318 139.60220337 170.8888855 C138.32360443 170.90153946 137.04500549 170.91419342 135.72766113 170.92723083 C134.31808066 170.91591546 132.90850422 170.90408802 131.49893188 170.89179993 C130.0087804 170.89694014 128.51863499 170.90422219 127.02850342 170.91348267 C122.9870412 170.93199235 118.94623895 170.9190613 114.90480423 170.89939237 C110.67372119 170.88300075 106.44267979 170.89181947 102.21157837 170.89691162 C95.10640934 170.90143202 88.00150362 170.88556621 80.89639282 170.85762024 C72.68412667 170.82556846 64.47233539 170.82558417 56.26003551 170.84283501 C48.35719542 170.85870371 40.45452927 170.85196436 32.55169678 170.83489799 C29.18973149 170.82802882 25.8279057 170.82905854 22.46594238 170.83644295 C18.50622731 170.84410922 14.54705208 170.8319691 10.58742905 170.80459404 C9.13501462 170.79771261 7.68254975 170.79760971 6.23013687 170.80480957 C4.24624367 170.8135102 2.26228694 170.79510278 0.2784729 170.77536011 C-0.83132431 170.77255319 -1.94112152 170.76974627 -3.08454895 170.76685429 C-6.78168995 170.13785731 -8.4600578 168.93023862 -11.05966187 166.26069641 C-11.51545922 163.336397 -11.65222713 161.00480855 -11.56039429 158.09004211 C-11.55481506 157.26820435 -11.54923584 156.44636658 -11.54348755 155.59962463 C-11.52892732 153.81474454 -11.50327346 152.0299284 -11.46785545 150.24534035 C-11.4145302 147.4044912 -11.39674279 144.56543909 -11.38908386 141.72412109 C-11.36208519 133.64663101 -11.28116706 125.57035478 -11.15267944 117.49385071 C-11.0765042 112.54809663 -11.05047276 107.60399815 -11.05340004 102.65769005 C-11.04468129 100.78757088 -11.01743995 98.91742909 -10.96999168 97.04789162 C-10.63358509 83.59758707 -13.1652407 75.09534564 -20.87510109 64.04453087 C-23.13207341 60.6457479 -24.78101132 56.94743701 -26.51278687 53.26460266 C-28.61500387 50.54127608 -30.8293367 50.23397719 -34.05966187 49.26069641 C-34.0843169 44.86413469 -34.10250029 40.46760921 -34.11459351 36.07099915 C-34.11963307 34.57424723 -34.12646474 33.07750026 -34.13510132 31.58076477 C-34.14718345 29.43369834 -34.15289378 27.28669679 -34.15731812 25.13960266 C-34.16255493 23.84610901 -34.16779175 22.55261536 -34.17318726 21.21992493 C-34.05966187 18.26069641 -34.05966187 18.26069641 -33.05966187 17.26069641 C-31.80153687 17.26069641 -30.54341187 17.26069641 -29.24716187 17.26069641 C-22.27177251 16.58890931 -17.03523722 11.89261341 -12.05966187 7.26069641 C-11.03213213 5.61085993 -10.02702719 3.94651435 -9.05966187 2.26069641 C-5.55197711 -0.07776009 -4.14886254 0.00771288 0 0 Z " fill="#575E62" transform="translate(180.05966186523438,175.7393035888672)"/>
<path d="M0 0 C49.5 0 99 0 150 0 C150 21.12 150 42.24 150 64 C100.5 64 51 64 0 64 C0 42.88 0 21.76 0 0 Z " fill="#FBFBFB" transform="translate(175,182)"/>
<path d="M0 0 C1.2828891 -0.00571014 2.5657782 -0.01142029 3.88754272 -0.01730347 C5.31745901 -0.01854889 6.7473754 -0.01967397 8.17729187 -0.02069092 C9.67684553 -0.02531809 11.176398 -0.03034261 12.6759491 -0.03573608 C16.7566143 -0.04887252 20.83726305 -0.05530755 24.9179461 -0.05974674 C27.46649094 -0.06267569 30.01503127 -0.06678017 32.56357384 -0.07125092 C40.53470728 -0.08492961 48.50583042 -0.09459424 56.47697479 -0.09845281 C65.68330192 -0.10293353 74.88948057 -0.12048049 84.09576255 -0.1494534 C91.2083518 -0.17106138 98.32089925 -0.18115663 105.43352097 -0.18249393 C109.6831283 -0.18354266 113.93259614 -0.18946491 118.18216896 -0.20731354 C122.18028437 -0.22377882 126.17815521 -0.22595732 130.17629242 -0.21717453 C131.64324027 -0.2164033 133.11020119 -0.22075821 134.57711601 -0.23063278 C136.58083044 -0.24332903 138.58464289 -0.23569222 140.58837891 -0.22705078 C141.70944692 -0.22851734 142.83051493 -0.2299839 143.9855547 -0.2314949 C148.33746627 0.30821052 150.92668858 2.08246555 153.98466492 5.14044189 C154.22517395 7.01339722 154.22517395 7.01339722 154.2117157 9.3147583 C154.21148911 10.60587021 154.21148911 10.60587021 154.21125793 11.92306519 C154.20093536 12.85331512 154.19061279 13.78356506 154.17997742 14.74200439 C154.17714752 15.69360443 154.17431763 16.64520447 154.17140198 17.62564087 C154.16018481 20.67236782 154.13507755 23.71880343 154.10966492 26.76544189 C154.0996371 28.82793766 154.09051091 30.89043801 154.08232117 32.95294189 C154.06024046 38.01555457 154.02570021 43.0779488 153.98466492 48.14044189 C153.29444276 47.65316022 152.6042206 47.16587854 151.89308262 46.66383076 C148.46244544 44.86691058 146.30741674 44.76565644 142.44998169 44.76622009 C141.48613032 44.76025848 141.48613032 44.76025848 140.5028072 44.75417644 C138.35777885 44.74458081 136.2134146 44.75635419 134.06840515 44.76812744 C132.52737686 44.76569859 130.98635013 44.76197835 129.44532776 44.75706482 C125.2656522 44.74766578 121.08621121 44.75707249 116.90655398 44.77039695 C112.53220509 44.78171858 108.15786763 44.77760344 103.7835083 44.77565002 C96.43881907 44.77476737 89.0942222 44.78584228 81.7495575 44.80426025 C73.25677005 44.82543532 64.76411781 44.82893591 56.27130932 44.8226983 C48.10154016 44.81700506 39.93181864 44.82264931 31.76205635 44.83387184 C28.28486818 44.83851756 24.80770915 44.8393918 21.33051872 44.837286 C17.23717455 44.83540329 13.14396813 44.84350558 9.05065536 44.85934639 C7.54782112 44.86359109 6.0449729 44.86443854 4.54213524 44.86165619 C2.49220532 44.85843653 0.44226739 44.8687372 -1.6076355 44.87974548 C-2.75522622 44.88179835 -3.90281694 44.88385122 -5.08518314 44.8859663 C-7.93897753 45.13381045 -9.59964992 45.65479185 -12.01533508 47.14044189 C-12.11435641 41.39301561 -12.1868759 35.64608798 -12.23506165 29.89801025 C-12.25515282 27.94349516 -12.28243098 25.98904 -12.3170929 24.034729 C-12.36572109 21.22215981 -12.38832869 18.41038663 -12.40596008 15.59747314 C-12.42660522 14.72645462 -12.44725037 13.8554361 -12.46852112 12.95802307 C-12.47004635 8.81598406 -12.36561892 6.69896002 -10.11592102 3.11187744 C-6.6900941 -0.10331925 -4.61734046 0.01226411 0 0 Z " fill="#545B5F" transform="translate(179.0153350830078,128.85955810546875)"/>
<path d="M0 0 C0.83123383 0.00247742 1.66246765 0.00495483 2.51889038 0.00750732 C3.3937912 0.00239639 4.26869202 -0.00271454 5.17010498 -0.00798035 C8.07159197 -0.02191805 10.97284258 -0.02091661 13.87435913 -0.01861572 C15.88453256 -0.02250005 17.89470517 -0.02683417 19.90487671 -0.03160095 C24.12161925 -0.03907193 28.33827808 -0.03876531 32.55502319 -0.0335083 C37.96934555 -0.0277092 43.38332632 -0.04465111 48.79759216 -0.06785297 C52.94961565 -0.08255507 57.10155617 -0.08346689 61.25360107 -0.08034325 C63.2503731 -0.08085813 65.24714957 -0.08612692 67.24389648 -0.09615517 C70.03110227 -0.10843567 72.8176336 -0.10177895 75.60482788 -0.09014893 C76.43606171 -0.09779266 77.26729553 -0.1054364 78.12371826 -0.11331177 C80.4180603 -0.09205627 80.4180603 -0.09205627 84.06185913 0.28216553 C86.17399278 3.45036599 86.31860703 4.25961362 86.35238647 7.8895874 C86.36514618 8.82065308 86.37790588 9.75171875 86.39105225 10.71099854 C86.39327789 11.71417114 86.39550354 12.71734375 86.39779663 13.75091553 C86.40778183 15.2986969 86.40778183 15.2986969 86.41796875 16.87774658 C86.42809613 19.05989803 86.43278574 21.24208045 86.4324646 23.42425537 C86.43684234 26.76933498 86.47317454 30.1131003 86.51107788 33.45794678 C86.51694498 35.57643184 86.52091509 37.69492318 86.52279663 39.81341553 C86.53716766 40.81658813 86.5515387 41.81976074 86.56634521 42.85333252 C86.56019196 43.78439819 86.5540387 44.71546387 86.54769897 45.67474365 C86.55054901 46.49398315 86.55339905 47.31322266 86.55633545 48.1572876 C86.06185913 50.28216553 86.06185913 50.28216553 84.55604553 52.04586792 C80.98179993 53.8175203 77.57144133 53.70017982 73.66903687 53.67034912 C72.824711 53.67560608 71.98038513 53.68086304 71.11047363 53.6862793 C68.32194476 53.6994743 65.53398747 53.69074382 62.74545288 53.68060303 C60.80779409 53.68262372 58.87013604 53.68553511 56.93247986 53.68930054 C52.87307489 53.69372305 48.81386802 53.68729442 44.75448608 53.67327881 C39.54655689 53.65617559 34.3390911 53.66603579 29.13117886 53.6839962 C25.1309407 53.69482623 21.1308128 53.69139148 17.13057137 53.68361282 C15.20999154 53.68160925 13.28940175 53.6840756 11.36883354 53.69105148 C8.68738067 53.69865438 6.00668333 53.6870788 3.32528687 53.67034912 C2.1306205 53.67945816 2.1306205 53.67945816 0.91181946 53.68875122 C-4.37837093 53.62747826 -4.37837093 53.62747826 -6.93133545 52.05259705 C-8.23572851 49.75886824 -8.31243192 48.2050129 -8.31045532 45.56707764 C-8.31668411 44.61276352 -8.3229129 43.6584494 -8.32933044 42.67521667 C-8.3201207 41.64703323 -8.31091095 40.61884979 -8.30142212 39.55950928 C-8.30192062 38.50308731 -8.30241913 37.44666534 -8.30293274 36.35823059 C-8.3005917 34.12476724 -8.29086148 31.89130129 -8.27432251 29.65789795 C-8.25070985 26.22968092 -8.25376398 22.80224017 -8.26040649 19.3739624 C-8.2548306 17.20664003 -8.24772127 15.03932096 -8.23892212 12.87200928 C-8.24028923 11.32669777 -8.24028923 11.32669777 -8.24168396 9.75016785 C-8.23215195 8.79900589 -8.22261993 7.84784393 -8.21279907 6.86785889 C-8.20819168 6.02863388 -8.20358429 5.18940887 -8.19883728 4.32475281 C-7.57850707 -0.53560793 -4.07106964 0.0380947 0 0 Z " fill="#FDFDFD" transform="translate(210.93814086914063,257.71783447265625)"/>
<path d="M0 0 C1.2219104 0.00607269 1.2219104 0.00607269 2.46850586 0.01226807 C3.30438232 0.01035461 4.14025879 0.00844116 5.00146484 0.00646973 C6.77010397 0.00510771 8.53875309 0.0088053 10.30737305 0.01715088 C13.02016579 0.02785031 15.7322963 0.01725631 18.44506836 0.00445557 C20.16121566 0.00577716 21.87736255 0.00833955 23.59350586 0.01226807 C24.40811279 0.0082196 25.22271973 0.00417114 26.06201172 0 C31.80108658 0.04797379 31.80108658 0.04797379 34.03100586 2.27789307 C34.78100586 5.02789307 34.78100586 5.02789307 34.03100586 8.27789307 C25.49918468 15.46444784 13.75080711 19.46162715 2.71850586 19.34039307 C1.11555664 19.32685791 1.11555664 19.32685791 -0.51977539 19.31304932 C-1.32801758 19.30144775 -2.13625977 19.28984619 -2.96899414 19.27789307 C-3.59399414 17.46539307 -3.59399414 17.46539307 -3.96899414 15.27789307 C-3.30899414 14.28789307 -2.64899414 13.29789307 -1.96899414 12.27789307 C-4.93899414 14.75289307 -4.93899414 14.75289307 -7.96899414 17.27789307 C-8.02283262 14.81926906 -8.06258452 12.36181757 -8.09399414 9.90289307 C-8.11075195 9.20422119 -8.12750977 8.50554932 -8.14477539 7.78570557 C-8.16243681 5.94891821 -8.07202675 4.11187344 -7.96899414 2.27789307 C-5.36593522 -0.32516585 -3.54620875 0.02964329 0 0 Z " fill="#565D61" transform="translate(236.968994140625,263.72210693359375)"/>
<path d="M0 0 C8.25 0 16.5 0 25 0 C25.04125 3.09375 25.0825 6.1875 25.125 9.375 C25.14320801 10.34872559 25.16141602 11.32245117 25.18017578 12.32568359 C25.1851709 13.09219238 25.19016602 13.85870117 25.1953125 14.6484375 C25.20578613 15.43395996 25.21625977 16.21948242 25.22705078 17.02880859 C25 19 25 19 23 21 C20.87695312 21.25878906 20.87695312 21.25878906 18.28125 21.265625 C17.34925781 21.26820313 16.41726563 21.27078125 15.45703125 21.2734375 C14.48121094 21.26570313 13.50539063 21.25796875 12.5 21.25 C11.52417969 21.25773437 10.54835938 21.26546875 9.54296875 21.2734375 C8.61097656 21.27085937 7.67898438 21.26828125 6.71875 21.265625 C5.86216797 21.26336914 5.00558594 21.26111328 4.12304688 21.25878906 C2 21 2 21 0 19 C-0.22705078 17.02880859 -0.22705078 17.02880859 -0.1953125 14.6484375 C-0.19031738 13.88192871 -0.18532227 13.11541992 -0.18017578 12.32568359 C-0.16196777 11.35195801 -0.14375977 10.37823242 -0.125 9.375 C-0.08375 6.28125 -0.0425 3.1875 0 0 Z " fill="#545B5F" transform="translate(298,350)"/>
<path d="M0 0 C8.25 0 16.5 0 25 0 C25.04125 3.09375 25.0825 6.1875 25.125 9.375 C25.14320801 10.34872559 25.16141602 11.32245117 25.18017578 12.32568359 C25.1851709 13.09219238 25.19016602 13.85870117 25.1953125 14.6484375 C25.20578613 15.43395996 25.21625977 16.21948242 25.22705078 17.02880859 C25 19 25 19 23 21 C20.87695312 21.25878906 20.87695312 21.25878906 18.28125 21.265625 C17.34925781 21.26820313 16.41726562 21.27078125 15.45703125 21.2734375 C14.48121094 21.26570313 13.50539062 21.25796875 12.5 21.25 C11.52417969 21.25773437 10.54835937 21.26546875 9.54296875 21.2734375 C8.61097656 21.27085937 7.67898437 21.26828125 6.71875 21.265625 C5.86216797 21.26336914 5.00558594 21.26111328 4.12304688 21.25878906 C2 21 2 21 0 19 C-0.22705078 17.02880859 -0.22705078 17.02880859 -0.1953125 14.6484375 C-0.19031738 13.88192871 -0.18532227 13.11541992 -0.18017578 12.32568359 C-0.16196777 11.35195801 -0.14375977 10.37823242 -0.125 9.375 C-0.08375 6.28125 -0.0425 3.1875 0 0 Z " fill="#535A5E" transform="translate(177,350)"/>
<path d="M0 0 C14.85 0 29.7 0 45 0 C45 3.63 45 7.26 45 11 C30.15 11 15.3 11 0 11 C0 7.37 0 3.74 0 0 Z " fill="#F9F9F9" transform="translate(227,324)"/>
<path d="M0 0 C0.82564453 0.48919922 0.82564453 0.48919922 1.66796875 0.98828125 C4.40251257 2.17462438 6.3415987 2.23372336 9.3125 2.1875 C10.21613281 2.18105469 11.11976563 2.17460937 12.05078125 2.16796875 C15.38455866 1.97809798 18.6943805 1.47223136 22 1 C23.98 7.27 25.96 13.54 28 20 C23.70816822 20.05372251 19.41700214 20.0935403 15.125 20.125 C13.90167969 20.14175781 12.67835938 20.15851563 11.41796875 20.17578125 C9.66806641 20.18544922 9.66806641 20.18544922 7.8828125 20.1953125 C6.80402832 20.20578613 5.72524414 20.21625977 4.61376953 20.22705078 C2 20 2 20 0 18 C-0.22705078 16.12060547 -0.22705078 16.12060547 -0.1953125 13.8671875 C-0.18886719 13.06152344 -0.18242187 12.25585938 -0.17578125 11.42578125 C-0.15064453 10.16314453 -0.15064453 10.16314453 -0.125 8.875 C-0.11597656 8.02550781 -0.10695312 7.17601562 -0.09765625 6.30078125 C-0.07405647 4.20040116 -0.03818483 2.10016556 0 0 Z " fill="#575E62" transform="translate(229,284)"/>
<path d="M0 0 C0 19.47 0 38.94 0 59 C-2.37964828 56.62035172 -3.67591335 55.09431401 -5.26171875 52.27734375 C-5.65810547 51.57416016 -6.05449219 50.87097656 -6.46289062 50.14648438 C-7.06907227 49.05303711 -7.06907227 49.05303711 -7.6875 47.9375 C-8.10322266 47.20466797 -8.51894531 46.47183594 -8.94726562 45.71679688 C-12 40.25796644 -12 40.25796644 -12 38 C-10.35 37.34 -8.7 36.68 -7 36 C-7.0314209 35.08710205 -7.0628418 34.1742041 -7.09521484 33.23364258 C-7.19774464 29.83220567 -7.27281395 26.43241953 -7.32958984 23.0300293 C-7.35968538 21.56036404 -7.40057406 20.09087729 -7.45263672 18.62182617 C-7.5257907 16.50394659 -7.55952214 14.38844755 -7.5859375 12.26953125 C-7.6173584 10.99698486 -7.6487793 9.72443848 -7.68115234 8.41333008 C-6.98211794 4.91039102 -4.3900331 0 0 0 Z " fill="#EFF0F0" transform="translate(169,188)"/>
<path d="M0 0 C2 1 4 2 6 3 C6.33 13.56 6.66 24.12 7 35 C8.65 35.66 10.3 36.32 12 37 C8.36433437 43.68412752 4.70775764 50.35556707 1 57 C0.67 57 0.34 57 0 57 C0 38.19 0 19.38 0 0 Z " fill="#FAFAFA" transform="translate(331,189)"/>
<path d="M0 0 C0.33 0 0.66 0 1 0 C1.04939662 3.95096978 1.08571755 7.9018203 1.10986328 11.85302734 C1.12488107 13.8591136 1.15028981 15.86511324 1.17578125 17.87109375 C1.18222656 19.12792969 1.18867188 20.38476562 1.1953125 21.6796875 C1.20578613 22.84226074 1.21625977 24.00483398 1.22705078 25.20263672 C1 28 1 28 -1 30 C-3.68839385 30.26991906 -6.29141936 30.08737357 -9 30 C-10.00777029 27.25262623 -11.00641446 24.50250048 -12 21.75 C-12.28617187 20.97269531 -12.57234375 20.19539063 -12.8671875 19.39453125 C-13.13789063 18.64042969 -13.40859375 17.88632812 -13.6875 17.109375 C-13.93886719 16.41811523 -14.19023437 15.72685547 -14.44921875 15.01464844 C-15 13 -15 13 -15 9 C-14.08476562 8.51789063 -13.16953125 8.03578125 -12.2265625 7.5390625 C-11.0259405 6.90123206 -9.8254252 6.26320074 -8.625 5.625 C-8.02171875 5.30789063 -7.4184375 4.99078125 -6.796875 4.6640625 C-4.21449618 3.2867938 -2.08169419 2.08169419 0 0 Z " fill="#596064" transform="translate(270,274)"/>
<path d="M0 0 C7.26 0 14.52 0 22 0 C22 4.95 22 9.9 22 15 C18.52078265 15.02683201 15.04176961 15.0467567 11.5625 15.0625 C10.07266602 15.07506836 10.07266602 15.07506836 8.55273438 15.08789062 C7.60849609 15.09111328 6.66425781 15.09433594 5.69140625 15.09765625 C4.81685791 15.10289307 3.94230957 15.10812988 3.04125977 15.11352539 C1 15 1 15 0 14 C-0.14426614 9.33154772 -0.04208415 4.67134047 0 0 Z " fill="#FAFAFA" transform="translate(293,323)"/>
<path d="M0 0 C7.26 0 14.52 0 22 0 C22 4.95 22 9.9 22 15 C18.52078265 15.02683201 15.04176961 15.0467567 11.5625 15.0625 C10.07266602 15.07506836 10.07266602 15.07506836 8.55273438 15.08789062 C7.60849609 15.09111328 6.66425781 15.09433594 5.69140625 15.09765625 C4.81685791 15.10289307 3.94230957 15.10812988 3.04125977 15.11352539 C1 15 1 15 0 14 C-0.14426614 9.33154772 -0.04208415 4.67134047 0 0 Z " fill="#F9F9F9" transform="translate(184,323)"/>
<path d="M0 0 C0.99128906 0.01160156 1.98257813 0.02320313 3.00390625 0.03515625 C3.99261719 0.04417969 4.98132813 0.05320313 6 0.0625 C6.84691406 0.07410156 7.69382813 0.08570313 8.56640625 0.09765625 C9.22640625 0.09765625 9.88640625 0.09765625 10.56640625 0.09765625 C11.55640625 0.09765625 12.54640625 0.09765625 13.56640625 0.09765625 C13.56640625 3.06765625 13.56640625 6.03765625 13.56640625 9.09765625 C16.86640625 9.09765625 20.16640625 9.09765625 23.56640625 9.09765625 C23.56640625 11.40765625 23.56640625 13.71765625 23.56640625 16.09765625 C22.24640625 15.76765625 20.92640625 15.43765625 19.56640625 15.09765625 C19.56640625 16.08765625 19.56640625 17.07765625 19.56640625 18.09765625 C14.56640625 18.09765625 9.56640625 18.09765625 4.56640625 18.09765625 C4.56640625 16.44765625 4.56640625 14.79765625 4.56640625 13.09765625 C5.22640625 13.09765625 5.88640625 13.09765625 6.56640625 13.09765625 C6.56640625 11.11765625 6.56640625 9.13765625 6.56640625 7.09765625 C4.25640625 7.09765625 1.94640625 7.09765625 -0.43359375 7.09765625 C-0.43359375 8.74765625 -0.43359375 10.39765625 -0.43359375 12.09765625 C-1.42359375 12.09765625 -2.41359375 12.09765625 -3.43359375 12.09765625 C-3.46046654 10.28523573 -3.4799309 8.47270392 -3.49609375 6.66015625 C-3.50769531 5.65082031 -3.51929688 4.64148438 -3.53125 3.6015625 C-3.40128877 0.26935652 -3.32726602 0.1335179 0 0 Z " fill="#E1E4E5" transform="translate(235.43359375,207.90234375)"/>
<path d="M0 0 C0.74886475 0.00523682 1.49772949 0.01047363 2.26928711 0.01586914 C3.36188843 0.01961548 3.36188843 0.01961548 4.4765625 0.0234375 C5.40718506 0.0325415 6.33780762 0.04164551 7.29663086 0.05102539 C11.72069336 0.08196289 11.72069336 0.08196289 16.23413086 0.11352539 C16.23413086 6.38352539 16.23413086 12.65352539 16.23413086 19.11352539 C14.91413086 19.11352539 13.59413086 19.11352539 12.23413086 19.11352539 C11.24413086 15.81352539 10.25413086 12.51352539 9.23413086 9.11352539 C7.81100586 9.29915039 6.38788086 9.48477539 4.92163086 9.67602539 C1.76044479 10.08835401 0.32891965 10.14512165 -2.76586914 9.11352539 C-2.86352539 2.96118164 -2.86352539 2.96118164 -2.76586914 1.11352539 C-1.76586914 0.11352539 -1.76586914 0.11352539 0 0 Z " fill="#646A6E" transform="translate(181.765869140625,206.886474609375)"/>
<path d="M0 0 C8.49609375 -0.09765625 8.49609375 -0.09765625 11 0 C12 1 12 1 12.1328125 3.25 C12.13023437 4.1575 12.12765625 5.065 12.125 6 C12.12757813 6.9075 12.13015625 7.815 12.1328125 8.75 C12 11 12 11 11 12 C7.3308423 12.14310287 3.67284559 12.04221662 0 12 C0 8.04 0 4.08 0 0 Z " fill="#646A6E" transform="translate(205,208)"/>
<path d="M0 0 C0.9075 0.00257813 1.815 0.00515625 2.75 0.0078125 C4.11125 0.00394531 4.11125 0.00394531 5.5 0 C7.75 0.1328125 7.75 0.1328125 8.75 1.1328125 C8.84823937 2.79710301 8.87973631 4.46563181 8.875 6.1328125 C8.87757813 7.0403125 8.88015625 7.9478125 8.8828125 8.8828125 C8.75 11.1328125 8.75 11.1328125 7.75 12.1328125 C6.08570949 12.23105187 4.41718069 12.26254881 2.75 12.2578125 C1.38875 12.26167969 1.38875 12.26167969 0 12.265625 C-2.25 12.1328125 -2.25 12.1328125 -3.25 11.1328125 C-3.34823937 9.46852199 -3.37973631 7.79999319 -3.375 6.1328125 C-3.37757813 5.2253125 -3.38015625 4.3178125 -3.3828125 3.3828125 C-3.20347538 0.34463064 -3.03818186 0.17933712 0 0 Z " fill="#62686C" transform="translate(277.25,207.8671875)"/>
<path d="M0 0 C1.50046875 0.00386719 1.50046875 0.00386719 3.03125 0.0078125 C4.0315625 0.00523437 5.031875 0.00265625 6.0625 0 C8.53125 0.1328125 8.53125 0.1328125 9.53125 1.1328125 C9.60351502 2.98568752 9.6150622 4.84115128 9.59375 6.6953125 C9.58472656 7.70722656 9.57570312 8.71914062 9.56640625 9.76171875 C9.55480469 10.54417969 9.54320312 11.32664063 9.53125 12.1328125 C8.54125 12.1328125 7.55125 12.1328125 6.53125 12.1328125 C6.53125 10.4828125 6.53125 8.8328125 6.53125 7.1328125 C4.22125 7.1328125 1.91125 7.1328125 -0.46875 7.1328125 C-0.46875 8.7828125 -0.46875 10.4328125 -0.46875 12.1328125 C-1.45875 12.1328125 -2.44875 12.1328125 -3.46875 12.1328125 C-3.49562279 10.32039198 -3.51508715 8.50786017 -3.53125 6.6953125 C-3.54285156 5.68597656 -3.55445313 4.67664063 -3.56640625 3.63671875 C-3.43556944 0.28206296 -3.34731824 0.18007725 0 0 Z " fill="#6F7579" transform="translate(235.46875,207.8671875)"/>
<path d="M0 0 C2.31 0 4.62 0 7 0 C8 1 8 1 8.1328125 3.90625 C8.13023437 5.0921875 8.12765625 6.278125 8.125 7.5 C8.12757813 8.6859375 8.13015625 9.871875 8.1328125 11.09375 C8 14 8 14 7 15 C4.69 15 2.38 15 0 15 C0 10.05 0 5.1 0 0 Z " fill="#E9EAEA" transform="translate(172,323)"/>
<path d="M0 0 C1.65322266 0.01740234 1.65322266 0.01740234 3.33984375 0.03515625 C4.99693359 0.04869141 4.99693359 0.04869141 6.6875 0.0625 C7.54214844 0.07410156 8.39679688 0.08570313 9.27734375 0.09765625 C9.27734375 1.08765625 9.27734375 2.07765625 9.27734375 3.09765625 C5.97734375 3.09765625 2.67734375 3.09765625 -0.72265625 3.09765625 C-0.72265625 3.75765625 -0.72265625 4.41765625 -0.72265625 5.09765625 C1.58734375 5.09765625 3.89734375 5.09765625 6.27734375 5.09765625 C6.27734375 5.75765625 6.27734375 6.41765625 6.27734375 7.09765625 C3.96734375 7.09765625 1.65734375 7.09765625 -0.72265625 7.09765625 C-0.72265625 7.75765625 -0.72265625 8.41765625 -0.72265625 9.09765625 C2.57734375 9.09765625 5.87734375 9.09765625 9.27734375 9.09765625 C9.27734375 10.08765625 9.27734375 11.07765625 9.27734375 12.09765625 C7.29824977 12.12452178 5.31905404 12.14399 3.33984375 12.16015625 C2.23769531 12.17175781 1.13554687 12.18335938 0 12.1953125 C-2.72265625 12.09765625 -2.72265625 12.09765625 -3.72265625 11.09765625 C-3.82089562 9.43336574 -3.85239256 7.76483694 -3.84765625 6.09765625 C-3.85023438 5.19015625 -3.8528125 4.28265625 -3.85546875 3.34765625 C-3.65957253 0.02894377 -3.35952204 0.12049936 0 0 Z " fill="#5B6266" transform="translate(221.72265625,207.90234375)"/>
<path d="M0 0 C2.31 0 4.62 0 7 0 C7 4.95 7 9.9 7 15 C5.02 15 3.04 15 1 15 C0 14 0 14 -0.09765625 10.83984375 C-0.08025391 8.90818359 -0.08025391 8.90818359 -0.0625 6.9375 C-0.05347656 5.64714844 -0.04445313 4.35679687 -0.03515625 3.02734375 C-0.02355469 2.02832031 -0.01195312 1.02929688 0 0 Z " fill="#FAFAFA" transform="translate(320,323)"/>
<path d="M0 0 C3.96 0 7.92 0 12 0 C12 2.31 12 4.62 12 7 C9.03 7 6.06 7 3 7 C3 8.65 3 10.3 3 12 C2.01 12 1.02 12 0 12 C0 8.04 0 4.08 0 0 Z " fill="#585F63" transform="translate(260,208)"/>
<path d="M0 0 C3.3 0 6.6 0 10 0 C10.99 2.97 11.98 5.94 13 9 C11.02090602 9.02686553 9.04171029 9.04633375 7.0625 9.0625 C5.96035156 9.07410156 4.85820312 9.08570313 3.72265625 9.09765625 C1 9 1 9 0 8 C-0.14115161 5.32941149 -0.04247107 2.67567762 0 0 Z " fill="#5F6569" transform="translate(179,217)"/>
<path d="M0 0 C4.18730802 1.046827 5.29986005 1.8176922 8 5 C8 5.66 8 6.32 8 7 C8.66 7 9.32 7 10 7 C10 4.69 10 2.38 10 0 C10.66 0 11.32 0 12 0 C12 3.96 12 7.92 12 12 C8.43688534 10.21844267 6.64354525 8.83236991 4 6 C3.67 7.98 3.34 9.96 3 12 C2.01 12 1.02 12 0 12 C0 8.04 0 4.08 0 0 Z " fill="#5F6669" transform="translate(292,208)"/>
<path d="M0 0 C0.66 0.33 1.32 0.66 2 1 C1.2575 1.6496875 1.2575 1.6496875 0.5 2.3125 C-1.33218192 3.99740483 -1.33218192 3.99740483 -1 7 C-0.15695313 7.03738281 0.68609375 7.07476562 1.5546875 7.11328125 C2.65039062 7.17902344 3.74609375 7.24476563 4.875 7.3125 C5.96554688 7.37050781 7.05609375 7.42851562 8.1796875 7.48828125 C9.11039063 7.65714844 10.04109375 7.82601563 11 8 C11.99 9.485 11.99 9.485 13 11 C9.79646507 11.93688286 6.8337584 12.19504794 3.5 12.25 C2.09234375 12.28867187 2.09234375 12.28867187 0.65625 12.328125 C-2.40162546 11.95038744 -3.73418595 11.0306824 -6 9 C-5.52797514 4.75177626 -3.03344482 2.80010291 0 0 Z " fill="#E9EAEA" transform="translate(235,275)"/>
<path d="M0 0 C0.99 0 1.98 0 3 0 C3 2.97 3 5.94 3 9 C6.3 9 9.6 9 13 9 C13 9.99 13 10.98 13 12 C11.02090602 12.02686553 9.04171029 12.04633375 7.0625 12.0625 C5.96035156 12.07410156 4.85820312 12.08570313 3.72265625 12.09765625 C1 12 1 12 0 11 C-0.07226502 9.14712498 -0.0838122 7.29166122 -0.0625 5.4375 C-0.05347656 4.42558594 -0.04445312 3.41367188 -0.03515625 2.37109375 C-0.02355469 1.58863281 -0.01195312 0.80617187 0 0 Z " fill="#62696C" transform="translate(246,208)"/>
<path d="M0 0 C0 4.29 0 8.58 0 13 C-1.32 13 -2.64 13 -4 13 C-4.99 9.7 -5.98 6.4 -7 3 C-1.125 0 -1.125 0 0 0 Z " fill="#565D61" transform="translate(198,213)"/>
<path d="M0 0 C3.96 0 7.92 0 12 0 C12 0.99 12 1.98 12 3 C10.35 3 8.7 3 7 3 C7 5.97 7 8.94 7 12 C6.01 12 5.02 12 4 12 C4 9.03 4 6.06 4 3 C2.68 3 1.36 3 0 3 C0 2.01 0 1.02 0 0 Z " fill="#646B6E" transform="translate(306,208)"/>
<path d="M0 0 C3.63 0 7.26 0 11 0 C11 1.98 11 3.96 11 6 C7.37 6 3.74 6 0 6 C0 4.02 0 2.04 0 0 Z " fill="#E5E7E8" transform="translate(205,220)"/>
<path d="M0 0 C0.33 0 0.66 0 1 0 C1 3.63 1 7.26 1 11 C0.67 10.01 0.34 9.02 0 8 C-3.3 8 -6.6 8 -10 8 C-10 7.34 -10 6.68 -10 6 C-7.69 6 -5.38 6 -3 6 C-3 5.34 -3 4.68 -3 4 C-5.31 4 -7.62 4 -10 4 C-10 3.34 -10 2.68 -10 2 C-6.7 2 -3.4 2 0 2 C0 1.34 0 0.68 0 0 Z " fill="#EDEEEE" transform="translate(231,209)"/>
<path d="M0 0 C2.97 0 5.94 0 9 0 C9 3.3 9 6.6 9 10 C6.36 10 3.72 10 1 10 C0.67 9.34 0.34 8.68 0 8 C1.98 8 3.96 8 6 8 C6 5.69 6 3.38 6 1 C4.02 1 2.04 1 0 1 C0 0.67 0 0.34 0 0 Z " fill="#5C6367" transform="translate(277,209)"/>
<path d="M0 0 C3.63 0 7.26 0 11 0 C10.01 0.495 10.01 0.495 9 1 C9 2.32 9 3.64 9 5 C6.03 5 3.06 5 0 5 C0 3.35 0 1.7 0 0 Z " fill="#7F8487" transform="translate(261,208)"/>
<path d="M0 0 C0.33 0 0.66 0 1 0 C1 2.64 1 5.28 1 8 C4.96 8 8.92 8 13 8 C13 8.99 13 9.98 13 11 C11.02090602 11.02686553 9.04171029 11.04633375 7.0625 11.0625 C5.96035156 11.07410156 4.85820312 11.08570313 3.72265625 11.09765625 C1 11 1 11 0 10 C-0.07205511 8.31391034 -0.08386068 6.62499341 -0.0625 4.9375 C-0.05347656 4.01839844 -0.04445312 3.09929687 -0.03515625 2.15234375 C-0.02355469 1.44207031 -0.01195312 0.73179687 0 0 Z " fill="#686E71" transform="translate(218,209)"/>
<path d="M0 0 C2.31 0 4.62 0 7 0 C7 1.98 7 3.96 7 6 C4.69 6 2.38 6 0 6 C0 4.02 0 2.04 0 0 Z " fill="#FBFBFB" transform="translate(207,211)"/>
<path d="M0 0 C2.97 0 5.94 0 9 0 C9 0.33 9 0.66 9 1 C6.69 1 4.38 1 2 1 C2 3.31 2 5.62 2 8 C4.31 8 6.62 8 9 8 C8.67 8.66 8.34 9.32 8 10 C5.36 10 2.72 10 0 10 C0 6.7 0 3.4 0 0 Z " fill="#565D61" transform="translate(205,209)"/>
<path d="M0 0 C1.98 0 3.96 0 6 0 C6 1.98 6 3.96 6 6 C4.02 6 2.04 6 0 6 C0 4.02 0 2.04 0 0 Z " fill="#FEFEFE" transform="translate(277,211)"/>
<path d="M0 0 C-1.13499394 3.29148243 -1.99283376 3.9959869 -5.125 5.75 C-6.548125 6.36875 -6.548125 6.36875 -8 7 C-8.33 6.01 -8.66 5.02 -9 4 C-2.25 0 -2.25 0 0 0 Z " fill="#E6E7E8" transform="translate(270,273)"/>
<path d="M0 0 C1.98 0 3.96 0 6 0 C6.33 1.32 6.66 2.64 7 4 C4.69 4 2.38 4 0 4 C0 2.68 0 1.36 0 0 Z " fill="#C0C7C9" transform="translate(240,222)"/>
<path d="M0 0 C1.98 0 3.96 0 6 0 C6.33 1.32 6.66 2.64 7 4 C4.69 4 2.38 4 0 4 C0 2.68 0 1.36 0 0 Z " fill="#BBC2C5" transform="translate(209,222)"/>
<path d="M0 0 C1.98 0.495 1.98 0.495 4 1 C3.67 2.32 3.34 3.64 3 5 C1.68 4.67 0.36 4.34 -1 4 C-0.67 2.68 -0.34 1.36 0 0 Z " fill="#A6AAAC" transform="translate(317,216)"/>
</svg>
