<?xml version="1.0" encoding="UTF-8"?>
<svg version="1.1" xmlns="http://www.w3.org/2000/svg" width="500" height="500">
<path d="M0 0 C165 0 330 0 500 0 C500 165 500 330 500 500 C335 500 170 500 0 500 C0 335 0 170 0 0 Z " fill="#FEFEFE" transform="translate(0,0)"/>
<path d="M0 0 C0.94319047 -0.00538554 1.88638093 -0.01077108 2.85815293 -0.01631981 C6.02650312 -0.03065578 9.19443884 -0.0234817 12.36280823 -0.01637268 C14.63112221 -0.02207329 16.89943331 -0.02903634 19.16773987 -0.03717041 C25.33503859 -0.05515098 31.50219542 -0.05392422 37.66951251 -0.04822803 C42.81388189 -0.04514328 47.95822372 -0.05122066 53.10258919 -0.05726677 C65.93060167 -0.07213086 78.75851429 -0.06848494 91.58652288 -0.05640347 C102.728013 -0.04647081 113.86933705 -0.0594113 125.01080155 -0.08333766 C136.45009309 -0.10771857 147.88927794 -0.11693909 159.32860047 -0.11068493 C165.75122803 -0.10730883 172.17371838 -0.10977385 178.59632683 -0.12693596 C184.63495338 -0.14236696 190.6732621 -0.13849209 196.71187592 -0.11963081 C198.93026988 -0.1159343 201.14868719 -0.11908412 203.36705971 -0.1295166 C206.39139794 -0.14265527 209.41467295 -0.13124185 212.43896484 -0.11352539 C213.32048121 -0.1231304 214.20199758 -0.1327354 215.11022657 -0.14263147 C219.13809508 -0.09395754 221.27044784 0.07635653 224.78225803 2.20953274 C226.9067758 4.52246081 227.72780725 6.66729727 228.83912659 9.56834412 C230.70450069 13.16399022 233.90179148 15.38145511 237.09547424 17.76268005 C237.79954407 18.29433777 238.50361389 18.82599548 239.22901917 19.37376404 C245.20804608 23.58152517 249.63486764 24.6279288 256.99000549 24.2978363 C259.78297424 24.38768005 259.78297424 24.38768005 261.43327332 25.62254333 C263.11352257 27.81997063 263.16260216 28.97409797 263.17115784 31.7197113 C263.18061432 32.59071472 263.1900708 33.46171814 263.19981384 34.3591156 C263.1907048 35.7654425 263.1907048 35.7654425 263.18141174 37.20018005 C263.18428192 38.16544617 263.1871521 39.13071228 263.19010925 40.12522888 C263.19215085 42.16616909 263.18661431 44.20712883 263.17408752 46.24803162 C263.15803545 49.37575445 263.1739332 52.50218501 263.19313049 55.62986755 C263.19114808 57.61164125 263.18730444 59.59341413 263.18141174 61.57518005 C263.18748444 62.51273132 263.19355713 63.45028259 263.19981384 64.41624451 C263.19035736 65.28724792 263.18090088 66.15825134 263.17115784 67.0556488 C263.16877106 67.82159363 263.16638428 68.58753845 263.16392517 69.37669373 C262.67445164 71.9605556 261.89603559 72.85079821 259.78297424 74.38768005 C256.09547424 74.57518005 256.09547424 74.57518005 252.78297424 74.38768005 C252.57930237 75.15080505 252.37563049 75.91393005 252.16578674 76.70018005 C250.20957891 81.91673428 247.43648905 86.56948279 244.65797424 91.38768005 C244.11398987 92.34029724 243.57000549 93.29291443 243.00953674 94.2743988 C242.45781799 95.23990662 241.90609924 96.20541443 241.33766174 97.20018005 C240.53504662 98.65044334 240.53504662 98.65044334 239.71621704 100.13000488 C237.78297424 103.38768005 237.78297424 103.38768005 235.71728516 106.02047729 C227.33782443 117.65194523 228.70325112 130.91716678 228.86868834 144.69139028 C228.90209729 148.25379892 228.88721477 151.81600592 228.87704468 155.37850952 C228.86445558 162.10850386 228.88963833 168.83773364 228.9310649 175.56759208 C229.0043352 187.63874787 229.01692063 199.71001959 229.00891 211.78137106 C229.00766743 216.01184298 229.02451629 220.24174404 229.05655801 224.47209084 C229.07812959 227.71483517 229.0814213 230.95762048 229.08839417 234.20042419 C229.10239761 235.36669846 229.11640106 236.53297272 229.13082886 237.73458862 C229.12985199 238.80665558 229.12887512 239.87872253 229.12786865 240.98327637 C229.13365024 241.9117743 229.13943182 242.84027224 229.1453886 243.79690647 C228.58191015 247.82501697 226.81352181 250.48595093 223.78297424 253.13768005 C219.3482835 255.90936177 214.88869043 255.53591942 209.8447876 255.53485107 C208.91949133 255.53852776 207.99419507 255.54220445 207.04085952 255.54599255 C203.92714156 255.55704312 200.81345694 255.56087554 197.69972229 255.56468201 C195.47258905 255.57094554 193.24545685 255.57759224 191.01832581 255.58459473 C184.95838013 255.60201273 178.89844236 255.61255833 172.83847785 255.62080026 C169.05453653 255.62594791 165.27059768 255.6320237 161.4866581 255.63831139 C151.00980175 255.65518057 140.53294655 255.66981619 130.05607891 255.67706013 C127.33784674 255.67897001 124.61961458 255.68089034 121.90138245 255.68284607 C121.22578326 255.68332981 120.55018407 255.68381355 119.85411219 255.68431195 C108.90724145 255.69261418 97.96047992 255.71795525 87.01365688 255.75042675 C75.77443011 255.78349384 64.53525682 255.80117569 53.29597503 255.80470437 C46.98562156 255.80705829 40.67544075 255.81606356 34.36513329 255.84116554 C28.42996035 255.86439391 22.49507442 255.86870048 16.55986786 255.85840416 C14.38058583 255.85790744 12.20128992 255.86426768 10.02205086 255.87796021 C7.04839153 255.89560004 4.0757711 255.88861165 1.10211182 255.87542725 C0.23838996 255.88639649 -0.62533189 255.89736574 -1.51522714 255.90866739 C-6.84953978 255.85151002 -10.08920365 255.09252 -14.21702576 251.38768005 C-16.16866712 247.92475391 -16.45522727 245.04062761 -16.39456177 241.10871887 C-16.38404785 240.06385315 -16.37353394 239.01898743 -16.36270142 237.94245911 C-16.33059319 236.2377092 -16.33059319 236.2377092 -16.2978363 234.4985199 C-16.26870774 231.99839107 -16.23988845 229.49825862 -16.21133423 226.99812317 C-16.19277336 225.6584846 -16.17406029 224.31884814 -16.15520287 222.97921371 C-16.09950547 218.80444217 -16.07340342 214.62980986 -16.05462646 210.45472717 C-16.05135823 209.74686864 -16.04809 209.03901011 -16.04472274 208.30970132 C-16.0381908 206.86168848 -16.03177295 205.41367513 -16.02546656 203.96566129 C-15.98302047 194.2553467 -15.92712713 184.54658384 -15.76805115 174.83738708 C-15.66079945 168.27820715 -15.60934416 161.72101651 -15.61800605 155.160936 C-15.62053554 151.7034845 -15.59808498 148.25099998 -15.50700951 144.7946434 C-15.03241504 124.04707492 -19.31323123 111.25585848 -30.43149757 94.207798 C-33.35835368 89.58503175 -35.80022071 84.73095525 -38.15516376 79.79723549 C-39.14975023 77.79580226 -39.14975023 77.79580226 -41.21702576 75.38768005 C-44.77700341 74.53798137 -44.77700341 74.53798137 -48.21702576 74.38768005 C-50.65831244 71.94639337 -50.46921276 71.31687191 -50.47581482 67.9697113 C-50.48211914 67.05536316 -50.48842346 66.14101501 -50.49491882 65.19895935 C-50.49087036 64.20936218 -50.4868219 63.21976501 -50.48265076 62.20018005 C-50.48456421 61.18673523 -50.48647766 60.17329041 -50.4884491 59.12913513 C-50.48981167 56.98386894 -50.48611023 54.83859452 -50.47776794 52.69334412 C-50.46706958 49.40116433 -50.47766095 46.10953027 -50.49046326 42.81736755 C-50.48914168 40.73663718 -50.48657931 38.65590714 -50.48265076 36.57518005 C-50.48669922 35.58558289 -50.49074768 34.59598572 -50.49491882 33.57640076 C-50.4886145 32.66205261 -50.48231018 31.74770447 -50.47581482 30.8056488 C-50.47422363 29.99893738 -50.47263245 29.19222595 -50.47099304 28.36106873 C-50.21702576 26.38768005 -50.21702576 26.38768005 -48.21702576 24.38768005 C-46.17494254 24.39359914 -44.13292653 24.4429454 -42.09202576 24.51268005 C-35.18751192 24.13503379 -31.12622227 21.97371394 -25.65452576 17.82518005 C-24.98856384 17.32454041 -24.32260193 16.82390076 -23.63645935 16.30809021 C-19.59508433 13.05262361 -16.90506515 9.77257125 -14.43992615 5.20433044 C-10.66591291 -0.40206455 -6.21374168 -0.04225742 0 0 Z " fill="#545B5F" transform="translate(138.21702575683594,120.61231994628906)"/>
<path d="M0 0 C0.87186841 0.00223072 1.74373681 0.00446144 2.64202547 0.00675976 C3.56097361 0.00519977 4.47992175 0.00363978 5.4267168 0.00203252 C8.53068816 -0.00198167 11.6346113 0.00121378 14.73858309 0.00434887 C16.95382895 0.00299502 19.16907458 0.00121518 21.38431978 -0.00096118 C27.4192648 -0.00553739 33.4541928 -0.00374519 39.48913813 -0.0005821 C45.78945002 0.00194054 52.0897604 -0.00039577 58.39007235 -0.00196826 C69.65140309 -0.00390712 80.91272679 -0.00078933 92.17405587 0.00429107 C102.39462479 0.00875912 112.61518235 0.00798318 122.83575106 0.00337231 C134.69076769 -0.00197338 146.54577882 -0.00397433 158.40079689 -0.00101542 C164.68132821 0.00054779 170.9618517 0.0007399 177.24238253 -0.00255191 C183.14542661 -0.00542946 189.04844914 -0.00345708 194.95149088 0.00234234 C197.12479857 0.00367057 199.29810806 0.00327478 201.47141504 0.00107968 C204.42471312 -0.00162939 207.37794093 0.0017463 210.33123446 0.00675976 C211.20310286 0.00452904 212.07497127 0.00229832 212.97325993 0 C218.87248014 0.01959359 218.87248014 0.01959359 219.98662996 1.13374341 C219.98662996 32.48374341 219.98662996 63.83374341 219.98662996 96.13374341 C145.07662996 96.13374341 70.16662996 96.13374341 -7.01337004 96.13374341 C-7.01337004 0.02329411 -7.01337004 0.02329411 0 0 Z " fill="#FEFEFE" transform="translate(138.01337003707886,129.8662565946579)"/>
<path d="M0 0 C1.42597801 -0.00807831 1.42597801 -0.00807831 2.88076365 -0.01631981 C6.07441788 -0.03065656 9.26766095 -0.02348148 12.46133423 -0.01637268 C14.74772984 -0.02207329 17.03412261 -0.02903634 19.32051086 -0.03717041 C25.53746159 -0.05515202 31.75427157 -0.0539239 37.97124052 -0.04822803 C43.15776613 -0.04514311 48.34426443 -0.05122092 53.53078616 -0.05726677 C66.46529235 -0.07213155 79.3997102 -0.0684847 92.33421488 -0.05640347 C103.56556031 -0.04647325 114.79674095 -0.05940698 126.02806096 -0.08333766 C137.56114587 -0.10772606 149.09413531 -0.11693724 160.62724745 -0.11068493 C167.10188544 -0.1073101 173.57638731 -0.10976533 180.05100632 -0.12693596 C186.13970233 -0.14237745 192.22808329 -0.13848032 198.31676674 -0.11963081 C200.5524788 -0.11593708 202.78821406 -0.11907611 205.0239048 -0.1295166 C208.07416337 -0.14267427 211.12337096 -0.13122468 214.17358398 -0.11352539 C215.05996941 -0.1231304 215.94635484 -0.1327354 216.85960042 -0.14263147 C222.28372924 -0.0777998 225.43269212 0.73983705 229.71377563 4.38768005 C232.44120836 8.58350589 233.08470122 11.8031684 233.05435181 16.76023865 C233.05412521 18.00107208 233.05389862 19.24190552 233.05366516 20.52033997 C233.03834898 21.85893624 233.02270106 23.19752876 233.00674438 24.53611755 C233.00114284 25.91759275 232.99687538 27.29907394 232.99388123 28.68055725 C232.98247622 32.30071222 232.95304733 35.92050093 232.91976929 39.54051208 C232.88897404 43.24081977 232.87535578 46.94118716 232.86026001 50.6415863 C232.82817271 57.89045043 232.77702994 65.13901375 232.71377563 72.38768005 C231.90987158 71.75090012 231.90987158 71.75090012 231.08972704 71.10125595 C225.23130173 66.78546547 221.11167175 65.51789367 213.90893555 65.64596558 C212.96288409 65.63872233 212.01683263 65.63147908 211.04211295 65.62401634 C207.89344762 65.60719966 204.74663429 65.63301675 201.59805298 65.65892029 C199.33224495 65.65569925 197.06643934 65.64987938 194.80064392 65.6416626 C188.66222751 65.62715033 182.52446782 65.65004122 176.38613081 65.68052173 C169.95788821 65.70691567 163.52966513 65.7015899 157.10137939 65.70043945 C146.30929215 65.70324686 135.51749474 65.72910311 124.72549438 65.77024841 C113.63072111 65.8125259 102.53616963 65.83375968 91.4413147 65.83177185 C90.41580423 65.83159205 90.41580423 65.83159205 89.36957638 65.83140861 C88.34580526 65.83122702 88.34580526 65.83122702 87.3013519 65.83104175 C74.01397309 65.82886559 60.72671189 65.84983831 47.43935823 65.87738156 C43.61258697 65.88377318 39.78583297 65.88590477 35.95905685 65.88709831 C29.94580894 65.89011331 23.93279356 65.90844141 17.91962242 65.93859673 C15.71336605 65.94735367 13.50708292 65.95105147 11.30080986 65.94931412 C8.28850945 65.94783975 5.27685829 65.96482968 2.26464844 65.98654175 C1.39236835 65.98189594 0.52008826 65.97725014 -0.37862456 65.97246355 C-7.13973029 66.0529043 -11.59928373 67.5963863 -17.28622437 71.38768005 C-17.3790739 63.40756825 -17.45006436 55.42768369 -17.49347305 47.44716454 C-17.51431152 43.74110655 -17.54255939 40.03541926 -17.58798218 36.32957458 C-17.63157549 32.75042219 -17.6553896 29.17162541 -17.66573334 25.59222794 C-17.67310072 24.22949758 -17.68748774 22.86678579 -17.70914459 21.50420761 C-17.91248949 8.17532652 -17.91248949 8.17532652 -13.28622437 3.38768005 C-12.77185003 2.85317199 -12.2574757 2.31866392 -11.72751427 1.76795864 C-7.93941195 -0.37379294 -4.28045294 -0.02887782 0 0 Z " fill="#535A5E" transform="translate(137.28622436523438,49.61231994628906)"/>
<path d="M0 0 C1.12024567 -0.00983414 2.24049133 -0.01966827 3.39468384 -0.02980042 C5.23151482 -0.01529846 5.23151482 -0.01529846 7.10545349 -0.00050354 C8.3984436 -0.00590652 9.69143372 -0.01130951 11.02360535 -0.01687622 C14.56701609 -0.03083559 18.10994154 -0.0196588 21.65332532 -0.00316501 C25.36083689 0.01068523 29.06832029 0.00422556 32.77584839 0.0007019 C39.00086795 -0.00199991 45.22569466 0.01147395 51.45066833 0.03465271 C58.6500926 0.06127408 65.84919465 0.06300582 73.04865128 0.05126435 C79.97277298 0.04049052 86.896778 0.04666972 93.82089043 0.06081963 C96.76861767 0.06658173 99.7162596 0.06649505 102.66398811 0.06175423 C106.77746804 0.05610198 110.89046539 0.07528883 115.00389099 0.09715271 C116.23046921 0.09265106 117.45704742 0.08814941 118.72079468 0.08351135 C119.83822052 0.09341599 120.95564636 0.10332062 122.10693359 0.11352539 C123.07976068 0.11595529 124.05258776 0.11838518 125.05489445 0.12088871 C127.9260677 0.56931545 128.78457185 1.18765957 130.48997498 3.50120544 C131.625043 6.90640952 131.62389809 9.52116776 131.63523865 13.11228943 C131.63859726 13.77929871 131.64195587 14.44630798 131.64541626 15.13352966 C131.65491404 17.33813846 131.65686872 19.54267122 131.65794373 21.74729919 C131.66115693 23.28042634 131.66452105 24.81355319 131.66802979 26.34667969 C131.67401797 29.56038626 131.67586998 32.77406595 131.67527771 35.98777771 C131.67517606 40.10481217 131.68883253 44.22167427 131.70604992 48.33866787 C131.71717027 51.50510449 131.71919691 54.67149942 131.71866798 57.83795357 C131.71984788 59.35579587 131.72427023 60.87363925 131.73200035 62.39146233 C131.74180183 64.51467328 131.73892186 66.6375099 131.7328949 68.76072693 C131.73431992 69.96857346 131.73574493 71.17641998 131.73721313 72.42086792 C131.49555512 75.43168243 131.25029239 77.07243509 129.48997498 79.50120544 C126.31153812 81.49023639 123.82166074 81.75714823 120.1072998 81.77536011 C119.01518692 81.78533524 117.92307404 81.79531036 116.79786682 81.80558777 C115.0078273 81.80658478 115.0078273 81.80658478 113.18162537 81.80760193 C111.92110855 81.81592545 110.66059174 81.82424896 109.36187744 81.83282471 C105.90733438 81.85475038 102.45287982 81.8635657 98.99827504 81.86865115 C96.83933862 81.87229631 94.68042533 81.87853712 92.52149773 81.88565254 C84.98794919 81.91013809 77.45446946 81.92319747 69.92088318 81.92674255 C62.900905 81.93037956 55.88136357 81.96028851 48.86151892 82.00214714 C42.8316708 82.03684085 36.80196754 82.05229081 30.77202028 82.05298859 C27.17177543 82.05378158 23.57197581 82.0625299 19.97183418 82.09098625 C15.95681537 82.1220135 11.94283817 82.11311197 7.92771912 82.10057068 C6.73638367 82.11540497 5.54504822 82.13023926 4.31761169 82.14552307 C-3.62273162 82.07471811 -3.62273162 82.07471811 -7.74794006 79.40834045 C-9.93038736 75.8076804 -10.13791 73.5905681 -10.14112854 69.38768005 C-10.14828384 68.69111801 -10.15543915 67.99455597 -10.16281128 67.27688599 C-10.17965664 64.9850971 -10.1603255 62.6952759 -10.13893127 60.40354919 C-10.13976028 58.80601846 -10.14222086 57.20848781 -10.14624023 55.61096191 C-10.14909522 52.26771785 -10.13442561 48.92514487 -10.10694885 45.58201599 C-10.07283807 41.2988217 -10.0788958 37.01682488 -10.09761143 32.73357296 C-10.10818357 29.43665602 -10.0992423 26.14001737 -10.08422661 22.8431263 C-10.07904771 21.26389454 -10.07952308 19.68463369 -10.08577156 18.10540581 C-10.09122783 15.89808077 -10.07084048 13.69246632 -10.04347229 11.4853363 C-10.03727371 10.23022751 -10.03107513 8.97511871 -10.02468872 7.68197632 C-9.06099984 1.72609961 -5.73744318 0.00123382 0 0 Z " fill="#F9F9F9" transform="translate(183.51002502441406,242.49879455566406)"/>
<path d="M0 0 C1.03437447 -0.00525696 1.03437447 -0.00525696 2.08964539 -0.01062012 C4.37431843 -0.01943923 6.65868306 -0.01358781 8.94335938 -0.00683594 C10.52754781 -0.00818254 12.11173584 -0.01012303 13.69592285 -0.01263428 C17.01818776 -0.01558578 20.34034522 -0.01128711 23.66259766 -0.00195312 C27.92672528 0.00944149 32.19060116 0.00288214 36.45471954 -0.00909805 C39.72660223 -0.01631599 42.99842498 -0.01402904 46.27030945 -0.00884247 C47.84282969 -0.00750578 49.41535532 -0.00915435 50.98786926 -0.01380157 C53.1834663 -0.01886579 55.37865241 -0.01115843 57.57421875 0 C59.45046936 0.00238678 59.45046936 0.00238678 61.36462402 0.00482178 C64.28710938 0.25878906 64.28710938 0.25878906 66.28710938 2.25878906 C67.03586286 6.35852126 67.06117843 10.16267367 66.28710938 14.25878906 C64.11721692 17.14804804 61.4266171 18.55151957 58.28710938 20.25878906 C57.62066406 20.73445313 56.95421875 21.21011719 56.26757812 21.70019531 C41.09742373 32.16896852 19.45457491 36.7277399 1.28710938 35.25878906 C-1.15429688 34.24316406 -1.15429688 34.24316406 -2.71289062 33.25878906 C-3.08084757 29.97592316 -3.03608383 28.67215894 -0.96289062 26.02050781 C-0.22039062 25.33601563 0.52210938 24.65152344 1.28710938 23.94628906 C2.02960938 23.24890625 2.77210938 22.55152344 3.53710938 21.83300781 C4.11460937 21.31351562 4.69210938 20.79402344 5.28710938 20.25878906 C2.09579082 21.32256191 0.7427194 22.45926553 -1.71289062 24.69628906 C-4.00477734 26.77548175 -6.12650083 28.5345292 -8.71289062 30.25878906 C-8.76228725 26.30781928 -8.79860818 22.35696877 -8.82275391 18.40576172 C-8.8377717 16.39967546 -8.86318043 14.39367582 -8.88867188 12.38769531 C-8.89833984 10.50244141 -8.89833984 10.50244141 -8.90820312 8.57910156 C-8.91867676 7.41652832 -8.92915039 6.25395508 -8.93994141 5.05615234 C-8.4709982 -0.72142962 -4.89447688 0.00622627 0 0 Z " fill="#545B5F" transform="translate(215.712890625,246.7412109375)"/>
<path d="M0 0 C0.89871826 0.32452148 1.79743652 0.64904297 2.72338867 0.98339844 C5.52876806 1.85379556 7.53477042 2.25640433 10.42578125 2.265625 C11.22306641 2.26820313 12.02035156 2.27078125 12.84179688 2.2734375 C13.65712891 2.26570313 14.47246094 2.25796875 15.3125 2.25 C16.5180957 2.26160156 16.5180957 2.26160156 17.74804688 2.2734375 C22.70650624 2.25748107 27.1075951 1.68079176 31.88354492 0.33105469 C34.46888287 -0.07334239 36.47832627 0.37143918 39 1 C40.42992047 5.21560331 41.85391801 9.43314642 43.27246094 13.65258789 C43.75586246 15.08770643 44.24087817 16.52228229 44.72753906 17.95629883 C45.42678121 20.01763614 46.12019477 22.08085542 46.8125 24.14453125 C47.23144531 25.38565674 47.65039062 26.62678223 48.08203125 27.90551758 C49 31 49 31 49 34 C42.34313186 34.0505916 35.68631306 34.0856876 29.02929688 34.10986328 C26.76332751 34.11993859 24.49737119 34.13359918 22.23144531 34.15087891 C18.97978499 34.17506011 15.72829613 34.18646763 12.4765625 34.1953125 C10.94994492 34.21079636 10.94994492 34.21079636 9.39248657 34.22659302 C8.45166229 34.22674408 7.51083801 34.22689514 6.54150391 34.22705078 C5.29574081 34.23371262 5.29574081 34.23371262 4.02481079 34.24050903 C2 34 2 34 0 32 C-0.17488254 29.56255103 -0.23177405 27.2406392 -0.1953125 24.8046875 C-0.1924826 24.09724396 -0.18965271 23.38980042 -0.18673706 22.66091919 C-0.17553137 20.3987749 -0.15042679 18.13702485 -0.125 15.875 C-0.11497067 14.34245363 -0.10584474 12.80990106 -0.09765625 11.27734375 C-0.07559086 7.51807699 -0.04105896 3.75910536 0 0 Z " fill="#555C60" transform="translate(207,285)"/>
<path d="M0 0 C12.54 0 25.08 0 38 0 C38.04125 4.723125 38.0825 9.44625 38.125 14.3125 C38.14320801 15.79919189 38.16141602 17.28588379 38.18017578 18.81762695 C38.1851709 19.98769287 38.19016602 21.15775879 38.1953125 22.36328125 C38.21102295 24.16212769 38.21102295 24.16212769 38.22705078 25.99731445 C38 29 38 29 36 32 C33.48170819 32.31710971 31.21310489 32.44413753 28.69140625 32.43359375 C27.6076194 32.44145653 27.6076194 32.44145653 26.50193787 32.44947815 C24.9729033 32.45590487 23.44381933 32.45455288 21.91479492 32.44604492 C19.57446154 32.43754345 17.23657577 32.46626755 14.89648438 32.49804688 C13.41145907 32.49965919 11.92642943 32.49908077 10.44140625 32.49609375 C9.7413295 32.50732773 9.04125275 32.51856171 8.31996155 32.53013611 C5.26391682 32.48630051 3.43886809 32.36605364 1.05322266 30.3762207 C-0.32371256 27.26965824 -0.33928331 24.88077582 -0.29296875 21.484375 C-0.28547607 20.35741211 -0.2779834 19.23044922 -0.27026367 18.06933594 C-0.24295166 16.64395508 -0.21563965 15.21857422 -0.1875 13.75 C-0.125625 9.2125 -0.06375 4.675 0 0 Z " fill="#575E62" transform="translate(316,381)"/>
<path d="M0 0 C12.21 0 24.42 0 37 0 C37.04125 4.74375 37.0825 9.4875 37.125 14.375 C37.14320801 15.8707959 37.16141602 17.3665918 37.18017578 18.90771484 C37.1851709 20.08027832 37.19016602 21.2528418 37.1953125 22.4609375 C37.21102295 24.26763916 37.21102295 24.26763916 37.22705078 26.11083984 C37 29 37 29 35 31 C32.51433457 31.19948557 30.1424925 31.27989743 27.65625 31.265625 C26.93135376 31.26753845 26.20645752 31.2694519 25.45959473 31.27142334 C23.92634738 31.27278487 22.3930885 31.26909064 20.85986328 31.26074219 C18.50917741 31.25004178 16.15925577 31.26063808 13.80859375 31.2734375 C12.32031081 31.2721159 10.83202834 31.26955349 9.34375 31.265625 C8.63851196 31.26967346 7.93327393 31.27372192 7.20666504 31.27789307 C2.22992486 31.22992486 2.22992486 31.22992486 0 29 C-0.22705078 26.11083984 -0.22705078 26.11083984 -0.1953125 22.4609375 C-0.19031738 21.28837402 -0.18532227 20.11581055 -0.18017578 18.90771484 C-0.16196777 17.41191895 -0.14375977 15.91612305 -0.125 14.375 C-0.08375 9.63125 -0.0425 4.8875 0 0 Z " fill="#535A5E" transform="translate(135,382)"/>
<path d="M0 0 C22.11 0 44.22 0 67 0 C67 5.61 67 11.22 67 17 C44.89 17 22.78 17 0 17 C0 11.39 0 5.78 0 0 Z " fill="#FCFCFC" transform="translate(211,343)"/>
<path d="M0 0 C0.02529174 7.22655492 0.04284219 14.4530985 0.05493164 21.6796875 C0.05996989 24.13965278 0.0668006 26.59961505 0.07543945 29.05957031 C0.08752723 32.58920025 0.09323329 36.11879069 0.09765625 39.6484375 C0.10281754 40.75367767 0.10797882 41.85891785 0.11329651 42.99765015 C0.11340981 44.52901108 0.11340981 44.52901108 0.11352539 46.09130859 C0.115746 46.99287689 0.11796661 47.89444519 0.12025452 48.82333374 C0 51 0 51 -1 53 C-6.28 53 -11.56 53 -17 53 C-20.02247982 45.61778066 -22.75791849 38.18133068 -25.3125 30.625 C-25.68439453 29.55894531 -26.05628906 28.49289062 -26.43945312 27.39453125 C-26.78556641 26.36972656 -27.13167969 25.34492188 -27.48828125 24.2890625 C-27.80321533 23.36818848 -28.11814941 22.44731445 -28.44262695 21.49853516 C-29.03950852 18.82289523 -29.13262071 17.48999744 -28 15 C-25.33463396 13.55725164 -22.78323343 12.3507646 -20 11.1875 C-13.86890386 8.49071322 -8.64587066 5.70322908 -3.56640625 1.25 C-2 0 -2 0 0 0 Z " fill="#555C60" transform="translate(282,266)"/>
<path d="M0 0 C0 29.04 0 58.08 0 88 C-2.41736625 84.776845 -4.36185631 81.74118049 -6.3203125 78.24609375 C-6.93777344 77.14458984 -7.55523437 76.04308594 -8.19140625 74.90820312 C-8.82949219 73.76287109 -9.46757813 72.61753906 -10.125 71.4375 C-11.09373047 69.71370117 -11.09373047 69.71370117 -12.08203125 67.95507812 C-16.87171266 59.38486201 -16.87171266 59.38486201 -18 56 C-15.36 55.34 -12.72 54.68 -10 54 C-10.0199855 53.4267247 -10.03997101 52.8534494 -10.06056213 52.26280212 C-10.26021979 46.27703537 -10.39562648 40.29221841 -10.49438477 34.30395508 C-10.53954926 32.07179327 -10.60089802 29.83989632 -10.67895508 27.60864258 C-10.78859078 24.39337854 -10.83926238 21.18164053 -10.87890625 17.96484375 C-10.92535782 16.97290512 -10.97180939 15.98096649 -11.01966858 14.95896912 C-11.02279924 10.62783096 -10.95703974 8.05504038 -7.97164917 4.76394653 C-1.94945928 0 -1.94945928 0 0 0 Z " fill="#FCFCFC" transform="translate(122,139)"/>
<path d="M0 0 C4.93299064 1.97319626 6.93300561 2.80298917 10 7 C10.66672055 10.51629773 10.55877227 13.94854084 10.453125 17.515625 C10.44367859 18.52719666 10.43423218 19.53876831 10.42449951 20.58099365 C10.38995385 23.80481945 10.3211355 27.02679266 10.25 30.25 C10.20012255 33.48723824 10.1572131 36.7244649 10.11834717 39.96185303 C10.09182879 41.97519766 10.05754322 43.98845709 10.01495361 46.00152588 C9.99873962 46.90626648 9.98252563 47.81100708 9.96582031 48.74316406 C9.94851868 49.54304749 9.93121704 50.34293091 9.91339111 51.16705322 C9.79486894 53.01918372 9.79486894 53.01918372 11 54 C13.32817964 54.36760731 15.6618385 54.70241581 18 55 C12.50010044 65.43032724 6.82115569 75.74560306 1 86 C0.67 86 0.34 86 0 86 C0 57.62 0 29.24 0 0 Z " fill="#F9FAFA" transform="translate(367,140)"/>
<path d="M0 0 C0.68429077 -0.00095673 1.36858154 -0.00191345 2.0736084 -0.00289917 C3.52286877 -0.0035808 4.97213218 -0.00172773 6.42138672 0.00244141 C8.64687928 0.00778998 10.87217001 0.0024959 13.09765625 -0.00390625 C14.50260461 -0.00324547 15.90755285 -0.0019643 17.3125 0 C18.59962891 0.00112793 19.88675781 0.00225586 21.21289062 0.00341797 C24.15625 0.1328125 24.15625 0.1328125 25.15625 1.1328125 C25.24310603 2.69453995 25.26327219 4.26010594 25.25390625 5.82421875 C25.25140869 6.67443604 25.24891113 7.52465332 25.24633789 8.40063477 C25.23723389 9.48787842 25.22812988 10.57512207 25.21875 11.6953125 C25.198125 15.1396875 25.1775 18.5840625 25.15625 22.1328125 C14.26625 22.1328125 3.37625 22.1328125 -7.84375 22.1328125 C-7.864375 18.6884375 -7.885 15.2440625 -7.90625 11.6953125 C-7.915354 10.60806885 -7.92445801 9.5208252 -7.93383789 8.40063477 C-7.93633545 7.55041748 -7.93883301 6.7002002 -7.94140625 5.82421875 C-7.94664307 4.94967041 -7.95187988 4.07512207 -7.95727539 3.17407227 C-7.70300783 -1.39782253 -3.72906371 0.00326783 0 0 Z " fill="#FEFEFE" transform="translate(153.84375,340.8671875)"/>
<path d="M0 0 C0.68429077 -0.00095673 1.36858154 -0.00191345 2.0736084 -0.00289917 C3.52286877 -0.0035808 4.97213218 -0.00172773 6.42138672 0.00244141 C8.64687928 0.00778998 10.87217001 0.0024959 13.09765625 -0.00390625 C14.50260461 -0.00324547 15.90755285 -0.0019643 17.3125 0 C18.59962891 0.00112793 19.88675781 0.00225586 21.21289062 0.00341797 C24.15625 0.1328125 24.15625 0.1328125 25.15625 1.1328125 C25.25505797 2.60933914 25.28704245 4.09048486 25.2890625 5.5703125 C25.29099609 6.91222656 25.29099609 6.91222656 25.29296875 8.28125 C25.28910156 9.22226562 25.28523438 10.16328125 25.28125 11.1328125 C25.28705078 12.54433594 25.28705078 12.54433594 25.29296875 13.984375 C25.29167969 14.87898438 25.29039062 15.77359375 25.2890625 16.6953125 C25.28793457 17.52160156 25.28680664 18.34789062 25.28564453 19.19921875 C25.15625 21.1328125 25.15625 21.1328125 24.15625 22.1328125 C21.7805648 22.2212092 19.43416326 22.24811555 17.05859375 22.23046875 C15.99530602 22.22834633 15.99530602 22.22834633 14.91053772 22.22618103 C12.63823288 22.22056693 10.36602525 22.20801213 8.09375 22.1953125 C6.55664204 22.19029931 5.01953255 22.18573609 3.48242188 22.18164062 C-0.29300642 22.17059292 -4.06836171 22.15331891 -7.84375 22.1328125 C-7.87262814 18.65366309 -7.89050687 15.17454419 -7.90625 11.6953125 C-7.91462891 10.70208984 -7.92300781 9.70886719 -7.93164062 8.68554688 C-7.93486328 7.74130859 -7.93808594 6.79707031 -7.94140625 5.82421875 C-7.94664307 4.94967041 -7.95187988 4.07512207 -7.95727539 3.17407227 C-7.70300783 -1.39782253 -3.72906371 0.00326783 0 0 Z " fill="#FEFEFE" transform="translate(317.84375,340.8671875)"/>
<path d="M0 0 C1.71703125 -0.01160156 1.71703125 -0.01160156 3.46875 -0.0234375 C6.5 0.375 6.5 0.375 8.39453125 1.48046875 C10.06578721 4.34463532 9.78487039 6.78436369 9.6875 10.0625 C9.66042969 11.24199219 9.63335937 12.42148438 9.60546875 13.63671875 C9.57066406 14.54035156 9.53585938 15.44398438 9.5 16.375 C10.16 16.375 10.82 16.375 11.5 16.375 C11.5 11.425 11.5 6.475 11.5 1.375 C12.49 1.375 13.48 1.375 14.5 1.375 C14.5 5.335 14.5 9.295 14.5 13.375 C19.45 13.375 24.4 13.375 29.5 13.375 C29.5 15.025 29.5 16.675 29.5 18.375 C25.54 18.87 25.54 18.87 21.5 19.375 C21.83 20.035 22.16 20.695 22.5 21.375 C23.16 21.045 23.82 20.715 24.5 20.375 C23.84 22.355 23.18 24.335 22.5 26.375 C21.18 25.055 19.86 23.735 18.5 22.375 C18.17 23.695 17.84 25.015 17.5 26.375 C12.75 27.375 12.75 27.375 10.5 27.375 C10.5 26.715 10.5 26.055 10.5 25.375 C9.7575 25.725625 9.015 26.07625 8.25 26.4375 C5.3677274 27.42009293 4.28823655 27.4076802 1.5 26.375 C1.3125 24 1.3125 24 1.5 21.375 C2.49 20.715 3.48 20.055 4.5 19.375 C4.75015873 15.79142759 4.75015873 15.79142759 4.5 12.375 C1.53 12.375 -1.44 12.375 -4.5 12.375 C-4.5 14.355 -4.5 16.335 -4.5 18.375 C-6.15 18.375 -7.8 18.375 -9.5 18.375 C-9.5809723 15.93683415 -9.64046972 13.50135616 -9.6875 11.0625 C-9.71263672 10.37220703 -9.73777344 9.68191406 -9.76367188 8.97070312 C-9.80480005 6.13285889 -9.80996282 3.92373277 -8.39453125 1.41796875 C-5.57220955 -0.13576299 -3.19903904 -0.02161513 0 0 Z " fill="#BFC2C4" transform="translate(227.5,166.625)"/>
<path d="M0 0 C2.59875 -0.04125 5.1975 -0.0825 7.875 -0.125 C8.69210449 -0.14320801 9.50920898 -0.16141602 10.35107422 -0.18017578 C12.23495049 -0.19477217 14.11869312 -0.09943482 16 0 C18 2 18 2 18.23046875 5.1875 C18.20919922 7.0746875 18.20919922 7.0746875 18.1875 9 C18.18105469 10.258125 18.17460937 11.51625 18.16796875 12.8125 C18 16 18 16 17 18 C11.39 18 5.78 18 0 18 C0 12.06 0 6.12 0 0 Z " fill="#666C6F" transform="translate(178,167)"/>
<path d="M0 0 C4.14581887 -0.02886751 8.29161216 -0.04675327 12.4375 -0.0625 C14.21350586 -0.07506836 14.21350586 -0.07506836 16.02539062 -0.08789062 C17.15009766 -0.09111328 18.27480469 -0.09433594 19.43359375 -0.09765625 C20.47572021 -0.10289307 21.51784668 -0.10812988 22.59155273 -0.11352539 C25 0 25 0 26 1 C26.375 3.3125 26.375 3.3125 26 6 C21.62275238 10.98100592 14.07225581 13.45347794 7.61328125 14.3203125 C3.88547026 14.41678081 2.15069138 14.10046092 -1 12 C-1.328125 9.6875 -1.328125 9.6875 -1.25 7 C-1.23453125 6.113125 -1.2190625 5.22625 -1.203125 4.3125 C-1 2 -1 2 0 0 Z " fill="#5D6367" transform="translate(143,166)"/>
<path d="M0 0 C1.8871875 0.00773438 1.8871875 0.00773438 3.8125 0.015625 C5.070625 0.01046875 6.32875 0.0053125 7.625 0 C10.8125 0.265625 10.8125 0.265625 12.8125 2.265625 C13.078125 5.453125 13.078125 5.453125 13.0625 9.265625 C13.06765625 10.52375 13.0728125 11.781875 13.078125 13.078125 C12.8125 16.265625 12.8125 16.265625 10.8125 18.265625 C7.625 18.53125 7.625 18.53125 3.8125 18.515625 C2.554375 18.52078125 1.29625 18.5259375 0 18.53125 C-3.1875 18.265625 -3.1875 18.265625 -5.1875 16.265625 C-5.453125 13.078125 -5.453125 13.078125 -5.4375 9.265625 C-5.44265625 8.0075 -5.4478125 6.749375 -5.453125 5.453125 C-5.08918713 1.08587052 -4.36725448 0.36393787 0 0 Z " fill="#676D70" transform="translate(283.1875,166.734375)"/>
<path d="M0 0 C3.3 0 6.6 0 10 0 C10 7.59 10 15.18 10 23 C7.03 23 4.06 23 1 23 C-1 21 -1 21 -1.24291992 18.95288086 C-1.23881104 18.13182861 -1.23470215 17.31077637 -1.23046875 16.46484375 C-1.22853516 15.57345703 -1.22660156 14.68207031 -1.22460938 13.76367188 C-1.21236328 12.83103516 -1.20011719 11.89839844 -1.1875 10.9375 C-1.18685547 10.00099609 -1.18621094 9.06449219 -1.18554688 8.09960938 C-1.14019224 1.14019224 -1.14019224 1.14019224 0 0 Z " fill="#F4F5F5" transform="translate(351,341)"/>
<path d="M0 0 C3.3 0 6.6 0 10 0 C12.30009773 2.30009773 11.18537365 7.84790666 11.1875 10.9375 C11.19974609 11.87013672 11.21199219 12.80277344 11.22460938 13.76367188 C11.22750977 15.10075195 11.22750977 15.10075195 11.23046875 16.46484375 C11.23457764 17.285896 11.23868652 18.10694824 11.24291992 18.95288086 C11 21 11 21 9 23 C6.03 23 3.06 23 0 23 C0 15.41 0 7.82 0 0 Z " fill="#F6F6F6" transform="translate(128,341)"/>
<path d="M0 0 C1.47668858 0.0133035 2.95331108 0.03716415 4.4296875 0.0703125 C5.18378906 0.07933594 5.93789062 0.08835938 6.71484375 0.09765625 C8.57826004 0.1212438 10.44151343 0.15711531 12.3046875 0.1953125 C12.3046875 1.8453125 12.3046875 3.4953125 12.3046875 5.1953125 C7.6846875 5.1953125 3.0646875 5.1953125 -1.6953125 5.1953125 C-1.6953125 5.8553125 -1.6953125 6.5153125 -1.6953125 7.1953125 C1.6046875 7.1953125 4.9046875 7.1953125 8.3046875 7.1953125 C8.3046875 8.5153125 8.3046875 9.8353125 8.3046875 11.1953125 C5.0046875 11.1953125 1.7046875 11.1953125 -1.6953125 11.1953125 C-1.6953125 11.8553125 -1.6953125 12.5153125 -1.6953125 13.1953125 C2.9246875 13.1953125 7.5446875 13.1953125 12.3046875 13.1953125 C12.3046875 14.8453125 12.3046875 16.4953125 12.3046875 18.1953125 C9.67941561 18.24913356 7.05524037 18.28889563 4.4296875 18.3203125 C3.68332031 18.33707031 2.93695313 18.35382813 2.16796875 18.37109375 C0.21274289 18.3887084 -1.74273271 18.29851439 -3.6953125 18.1953125 C-5.6953125 16.1953125 -5.6953125 16.1953125 -5.9609375 13.0078125 C-5.95578125 11.7496875 -5.950625 10.4915625 -5.9453125 9.1953125 C-5.95046875 7.9371875 -5.955625 6.6790625 -5.9609375 5.3828125 C-5.56878243 0.67695164 -4.68410112 0.24757405 0 0 Z " fill="#666C6F" transform="translate(203.6953125,166.8046875)"/>
<path d="M0 0 C2.34784785 3.67891119 2.20558811 6.83592149 2.125 11.125 C2.10695312 12.36507812 2.08890625 13.60515625 2.0703125 14.8828125 C2.04710937 15.91148437 2.02390625 16.94015625 2 18 C2 18.66 2 19.32 2 20 C1.67794257 22.33491639 1.34541851 24.66842508 1 27 C0.0925 26.814375 -0.815 26.62875 -1.75 26.4375 C-4.85025954 25.79926433 -4.85025954 25.79926433 -7.1875 26.625 C-7.785625 26.74875 -8.38375 26.8725 -9 27 C-10.75 25.5625 -10.75 25.5625 -12 24 C-12.33 24.66 -12.66 25.32 -13 26 C-13.66 26 -14.32 26 -15 26 C-15.33 24.35 -15.66 22.7 -16 21 C-15.01 20.67 -14.02 20.34 -13 20 C-13.66 19.34 -14.32 18.68 -15 18 C-10.05 18 -5.1 18 0 18 C0 16.35 0 14.7 0 13 C-4.62 13 -9.24 13 -14 13 C-14 12.34 -14 11.68 -14 11 C-10.7 11 -7.4 11 -4 11 C-4 9.68 -4 8.36 -4 7 C-7.3 7 -10.6 7 -14 7 C-14 6.34 -14 5.68 -14 5 C-9.38 5 -4.76 5 0 5 C0 3.35 0 1.7 0 0 Z " fill="#F2F3F3" transform="translate(216,167)"/>
<path d="M0 0 C2.59875 -0.04125 5.1975 -0.0825 7.875 -0.125 C8.69210449 -0.14320801 9.50920898 -0.16141602 10.35107422 -0.18017578 C12.23495049 -0.19477217 14.11869312 -0.09943482 16 0 C18 2 18 2 18.23046875 3.91015625 C18.11111111 9.88888889 18.11111111 9.88888889 17 11 C14.81360547 11.07258946 12.62499611 11.08373783 10.4375 11.0625 C8.64119141 11.04896484 8.64119141 11.04896484 6.80859375 11.03515625 C5.88175781 11.02355469 4.95492188 11.01195312 4 11 C4 13.31 4 15.62 4 18 C2.68 18 1.36 18 0 18 C0 12.06 0 6.12 0 0 Z " fill="#71777A" transform="translate(258,167)"/>
<path d="M0 0 C1.74796875 -0.02126953 1.74796875 -0.02126953 3.53125 -0.04296875 C6.5 0.1875 6.5 0.1875 8.5 2.1875 C8.64497985 4.76814129 8.68677545 7.23693884 8.625 9.8125 C8.61597656 10.51890625 8.60695312 11.2253125 8.59765625 11.953125 C8.57407603 13.69806098 8.53820461 15.44282295 8.5 17.1875 C7.51 17.1875 6.52 17.1875 5.5 17.1875 C5.5 15.2075 5.5 13.2275 5.5 11.1875 C1.87 11.1875 -1.76 11.1875 -5.5 11.1875 C-5.5 13.1675 -5.5 15.1475 -5.5 17.1875 C-6.49 17.1875 -7.48 17.1875 -8.5 17.1875 C-8.5 11.9075 -8.5 6.6275 -8.5 1.1875 C-5.65161879 -0.2366906 -3.17212092 0.01754492 0 0 Z " fill="#696F72" transform="translate(227.5,166.8125)"/>
<path d="M0 0 C4.62 0 9.24 0 14 0 C15.69939315 4.35931285 17.16775145 8.38627259 18 13 C15.18743719 13.02684312 12.37512759 13.04676188 9.5625 13.0625 C8.76005859 13.07087891 7.95761719 13.07925781 7.13085938 13.08789062 C5.08704779 13.0965143 3.04316098 13.0522815 1 13 C0 12 0 12 -0.09765625 9.27734375 C-0.06510417 6.18489583 -0.03255208 3.09244792 0 0 Z " fill="#585F63" transform="translate(142,181)"/>
<path d="M0 0 C2.74641888 0.28048533 3.86110881 0.86403901 5.8515625 2.8125 C6.43679688 3.534375 7.02203125 4.25625 7.625 5 C9.94555299 7.95572315 9.94555299 7.95572315 13 10 C13 6.7 13 3.4 13 0 C14.32 0 15.64 0 17 0 C17 5.94 17 11.88 17 18 C12.74653068 16.93663267 11.71091682 16.09469815 8.75 13.0625 C8.04359375 12.35222656 7.3371875 11.64195312 6.609375 10.91015625 C5 9 5 9 5 7 C4.34 7 3.68 7 3 7 C3 10.63 3 14.26 3 18 C1.68 18 0.36 18 -1 18 C-1.02684312 15.18743719 -1.04676188 12.37512759 -1.0625 9.5625 C-1.07087891 8.76005859 -1.07925781 7.95761719 -1.08789062 7.13085938 C-1.0965143 5.08704779 -1.0522815 3.04316098 -1 1 C-0.67 0.67 -0.34 0.34 0 0 Z " fill="#636A6D" transform="translate(305,167)"/>
<path d="M0 0 C5.94 0 11.88 0 18 0 C18 1.65 18 3.3 18 5 C15.69 5 13.38 5 11 5 C11 9.29 11 13.58 11 18 C9.68 18 8.36 18 7 18 C7 13.71 7 9.42 7 5 C4.69 5 2.38 5 0 5 C0 3.35 0 1.7 0 0 Z " fill="#696F73" transform="translate(324,167)"/>
<path d="M0 0 C0.33 0 0.66 0 1 0 C1.02888514 3.14581423 1.04675923 6.29159469 1.0625 9.4375 C1.07087891 10.33533203 1.07925781 11.23316406 1.08789062 12.15820312 C1.09111328 13.01220703 1.09433594 13.86621094 1.09765625 14.74609375 C1.10289307 15.53685303 1.10812988 16.3276123 1.11352539 17.14233398 C1 19 1 19 0 20 C-1.66617115 20.04063832 -3.33388095 20.042721 -5 20 C-5.67467562 18.25307205 -6.33944156 16.50231475 -7 14.75 C-7.37125 13.77546875 -7.7425 12.8009375 -8.125 11.796875 C-9 9 -9 9 -9 5 C-8.43410156 4.72285156 -7.86820313 4.44570312 -7.28515625 4.16015625 C-6.55167969 3.79792969 -5.81820312 3.43570313 -5.0625 3.0625 C-3.96615234 2.52302734 -3.96615234 2.52302734 -2.84765625 1.97265625 C-1.03750973 1.13628173 -1.03750973 1.13628173 0 0 Z " fill="#575E62" transform="translate(168,174)"/>
<path d="M0 0 C0.33 0 0.66 0 1 0 C1.04898438 0.62648437 1.09796875 1.25296875 1.1484375 1.8984375 C1.22320312 2.71570313 1.29796875 3.53296875 1.375 4.375 C1.44460937 5.18710938 1.51421875 5.99921875 1.5859375 6.8359375 C1.82892588 9.20334191 1.82892588 9.20334191 4 11 C12.83996054 11.96435933 20.59824391 8.65443762 28 4 C29 5 29 5 29.11352539 6.85766602 C29.10828857 7.64842529 29.10305176 8.43918457 29.09765625 9.25390625 C29.09443359 10.10791016 29.09121094 10.96191406 29.08789062 11.84179688 C29.07951172 12.73962891 29.07113281 13.63746094 29.0625 14.5625 C29.05798828 15.46419922 29.05347656 16.36589844 29.04882812 17.29492188 C29.03700225 19.53001314 29.0205222 21.76497437 29 24 C28.67 24 28.34 24 28 24 C27.67 18.39 27.34 12.78 27 7 C25.02 8.32 23.04 9.64 21 11 C20.01 11 19.02 11 18 11 C18.30035156 11.84304687 18.60070312 12.68609375 18.91015625 13.5546875 C19.29042969 14.65039062 19.67070312 15.74609375 20.0625 16.875 C20.63677734 18.51082031 20.63677734 18.51082031 21.22265625 20.1796875 C22 23 22 23 21 25 C20.01 24.67 19.02 24.34 18 24 C16.64925014 20.74819478 15.90696366 17.4119109 15 14 C10.71 14 6.42 14 2 14 C1.67 17.3 1.34 20.6 1 24 C0.67 24 0.34 24 0 24 C0 16.08 0 8.16 0 0 Z " fill="#D7D8D9" transform="translate(141,168)"/>
<path d="M0 0 C5.28 0 10.56 0 16 0 C17 5 17 5 17 9 C12.71 9 8.42 9 4 9 C4 8.34 4 7.68 4 7 C3.34 7 2.68 7 2 7 C2 7.66 2 8.32 2 9 C1.34 9 0.68 9 0 9 C0.66 6.69 1.32 4.38 2 2 C1.34 1.34 0.68 0.68 0 0 Z " fill="#F5F5F6" transform="translate(178,185)"/>
<path d="M0 0 C0.33 1.98 0.66 3.96 1 6 C1.66 6 2.32 6 3 6 C3 4.68 3 3.36 3 2 C3.66 2 4.32 2 5 2 C4.67 3.98 4.34 5.96 4 8 C2.63875 7.7215625 2.63875 7.7215625 1.25 7.4375 C-1.85025954 6.79926433 -1.85025954 6.79926433 -4.1875 7.625 C-4.785625 7.74875 -5.38375 7.8725 -6 8 C-7.75 6.5625 -7.75 6.5625 -9 5 C-9.33 5.66 -9.66 6.32 -10 7 C-10.66 7 -11.32 7 -12 7 C-12.33 5.35 -12.66 3.7 -13 2 C-8.50343896 -0.24828052 -4.92127034 -0.16682272 0 0 Z " fill="#D0D4D6" transform="translate(213,186)"/>
<path d="M0 0 C0.99 0 1.98 0 3 0 C3.33 3.96 3.66 7.92 4 12 C8.29 12.33 12.58 12.66 17 13 C17 13.99 17 14.98 17 16 C11.39 16 5.78 16 0 16 C0 10.72 0 5.44 0 0 Z " fill="#545B5F" transform="translate(239,168)"/>
<path d="M0 0 C3.63 0 7.26 0 11 0 C11 2.64 11 5.28 11 8 C7.37 8 3.74 8 0 8 C0 5.36 0 2.72 0 0 Z " fill="#F5F5F6" transform="translate(182,172)"/>
<path d="M0 0 C3.3 0 6.6 0 10 0 C10 2.64 10 5.28 10 8 C6.7 8 3.4 8 0 8 C0 5.36 0 2.72 0 0 Z " fill="#F5F5F5" transform="translate(282,172)"/>
<path d="M0 0 C0.33 0 0.66 0 1 0 C1.33 8.58 1.66 17.16 2 26 C4.64 23.36 7.28 20.72 10 18 C12.8125 15.9375 12.8125 15.9375 15 15 C15.99 15.33 16.98 15.66 18 16 C16.42173185 17.46381359 14.83717771 18.92085163 13.25 20.375 C12.36828125 21.18710937 11.4865625 21.99921875 10.578125 22.8359375 C7.01572337 25.82619584 4.52270256 26.86932436 0 28 C0 18.76 0 9.52 0 0 Z " fill="#CACCCD" transform="translate(206,250)"/>
<path d="M0 0 C1.32 0 2.64 0 4 0 C4 5.61 4 11.22 4 17 C2.68 17 1.36 17 0 17 C0 11.39 0 5.78 0 0 Z " fill="#646A6E" transform="translate(298,168)"/>
<path d="M0 0 C5.28 0 10.56 0 16 0 C17 5 17 5 17 9 C15.68 9 14.36 9 13 9 C11 7 11 7 10 3 C6.7 2.34 3.4 1.68 0 1 C0 0.67 0 0.34 0 0 Z " fill="#F3F4F4" transform="translate(178,185)"/>
<path d="M0 0 C0.33 0 0.66 0 1 0 C1.04898438 0.62648437 1.09796875 1.25296875 1.1484375 1.8984375 C1.22320312 2.71570313 1.29796875 3.53296875 1.375 4.375 C1.44460937 5.18710938 1.51421875 5.99921875 1.5859375 6.8359375 C1.82892588 9.20334191 1.82892588 9.20334191 4 11 C6.43252661 11.46162427 6.43252661 11.46162427 9.125 11.625 C10.03507813 11.69976562 10.94515625 11.77453125 11.8828125 11.8515625 C12.58148438 11.90054688 13.28015625 11.94953125 14 12 C12 14 12 14 9.6171875 14.1953125 C8.71226562 14.17210937 7.80734375 14.14890625 6.875 14.125 C4.461875 14.063125 4.461875 14.063125 2 14 C1.67 17.3 1.34 20.6 1 24 C0.67 24 0.34 24 0 24 C0 16.08 0 8.16 0 0 Z " fill="#E6E7E8" transform="translate(141,168)"/>
<path d="M0 0 C1.66611905 -0.042721 3.33382885 -0.04063832 5 0 C6 1 6 1 6.0625 3.5625 C6.041875 4.366875 6.02125 5.17125 6 6 C3.625 6.625 3.625 6.625 1 7 C0.34 6.34 -0.32 5.68 -1 5 C-0.625 2.375 -0.625 2.375 0 0 Z " fill="#BEC0C2" transform="translate(340,179)"/>
<path d="M0 0 C-6.93 3.465 -6.93 3.465 -14 7 C-14.66 6.34 -15.32 5.68 -16 5 C-14.09118566 3.96455826 -12.17260796 2.94709915 -10.25 1.9375 C-8.64898437 1.08478516 -8.64898437 1.08478516 -7.015625 0.21484375 C-4 -1 -4 -1 0 0 Z " fill="#888D8F" transform="translate(238,259)"/>
<path d="M0 0 C1.32 0.33 2.64 0.66 4 1 C4.33 2.98 4.66 4.96 5 7 C3.35 7 1.7 7 0 7 C0 4.69 0 2.38 0 0 Z " fill="#BEC5C8" transform="translate(185,187)"/>
<path d="M0 0 C2.475 0.495 2.475 0.495 5 1 C4.67 2.32 4.34 3.64 4 5 C2.68 5.33 1.36 5.66 0 6 C0 4.02 0 2.04 0 0 Z " fill="#B8BFC2" transform="translate(241,188)"/>
<path d="M0 0 C0.33 0.66 0.66 1.32 1 2 C1.66 1.67 2.32 1.34 3 1 C2.34 2.98 1.68 4.96 1 7 C0.34 6.01 -0.32 5.02 -1 4 C-4.55672179 2.7811879 -4.55672179 2.7811879 -8 2 C-4.77208445 -0.1519437 -3.71599191 -0.20086443 0 0 Z " fill="#D1D6D8" transform="translate(249,186)"/>
<path d="M0 0 C0.99 0.33 1.98 0.66 3 1 C3.33 2.65 3.66 4.3 4 6 C2.68 6 1.36 6 0 6 C0 4.02 0 2.04 0 0 Z " fill="#BFC5C8" transform="translate(191,188)"/>
<path d="M0 0 C1.65 0 3.3 0 5 0 C5.33 1.65 5.66 3.3 6 5 C4.35 4.67 2.7 4.34 1 4 C0.67 2.68 0.34 1.36 0 0 Z " fill="#9B9FA1" transform="translate(340,179)"/>
<path d="M0 0 C-1.2065625 0.5878125 -1.2065625 0.5878125 -2.4375 1.1875 C-5.23064738 2.76948191 -5.23064738 2.76948191 -5.8125 5.6875 C-5.9053125 6.8321875 -5.9053125 6.8321875 -6 8 C-8 5 -8 5 -7.9375 2.9375 C-7 1 -7 1 -4.5625 -0.3125 C-2 -1 -2 -1 0 0 Z " fill="#787E80" transform="translate(261,280)"/>
<path d="M0 0 C0.99 0.33 1.98 0.66 3 1 C0.69 2.65 -1.62 4.3 -4 6 C-4.66 5.34 -5.32 4.68 -6 4 C-3.1875 1.9375 -3.1875 1.9375 0 0 Z " fill="#BEC1C3" transform="translate(221,265)"/>
<path d="M0 0 C1.32 0.33 2.64 0.66 4 1 C4 2.65 4 4.3 4 6 C3.67 5.34 3.34 4.68 3 4 C2.34 4 1.68 4 1 4 C0.67 4.66 0.34 5.32 0 6 C0 4.02 0 2.04 0 0 Z " fill="#AEB6B9" transform="translate(223,187)"/>
<path d="M0 0 C0.66 0 1.32 0 2 0 C2.33 1.65 2.66 3.3 3 5 C2.01 4.67 1.02 4.34 0 4 C0 4.66 0 5.32 0 6 C-0.66 6 -1.32 6 -2 6 C-1.34 4.02 -0.68 2.04 0 0 Z " fill="#B1B9BC" transform="translate(180,188)"/>
</svg>
