<?xml version="1.0" encoding="UTF-8"?>
<svg version="1.1" xmlns="http://www.w3.org/2000/svg" width="500" height="500">
<path d="M0 0 C165 0 330 0 500 0 C500 165 500 330 500 500 C335 500 170 500 0 500 C0 335 0 170 0 0 Z " fill="#FEFEFE" transform="translate(0,0)"/>
<path d="M0 0 C1.49569661 -0.01169993 1.49569661 -0.01169993 3.02160931 -0.02363622 C6.36675014 -0.04359852 9.71075869 -0.02777432 13.0559082 -0.01205444 C15.45245021 -0.01882864 17.84898701 -0.02773064 20.24551392 -0.03860474 C26.08134545 -0.05905686 31.91681645 -0.05603651 37.75265908 -0.04154153 C42.4955638 -0.03024894 47.23837842 -0.02871844 51.98129272 -0.03416061 C52.99389334 -0.03530986 52.99389334 -0.03530986 54.02695054 -0.03648233 C55.39834224 -0.03808096 56.76973391 -0.03970202 58.14112556 -0.04134528 C71.00031127 -0.05560259 83.85931875 -0.03921044 96.71847522 -0.01234345 C107.75194058 0.0099954 118.78514291 0.00611526 129.81860352 -0.01693726 C142.63179893 -0.04369569 155.44483814 -0.0542293 168.25805759 -0.03887594 C169.62440043 -0.03728319 170.9907433 -0.03571134 172.35708618 -0.03416061 C173.36548279 -0.03300355 173.36548279 -0.03300355 174.39425105 -0.03182311 C179.13139228 -0.02750621 183.86843442 -0.03479238 188.6055603 -0.04655838 C194.98161259 -0.06098271 201.35716731 -0.0510178 207.73316574 -0.0220871 C210.07571969 -0.01546551 212.41831538 -0.01739212 214.76085281 -0.02840042 C217.95393028 -0.04202427 221.14540418 -0.02497671 224.33837891 0 C225.73550377 -0.01673041 225.73550377 -0.01673041 227.16085339 -0.03379881 C231.45416524 0.03153503 233.60065291 0.25258655 237.23678303 2.69782543 C239.59431562 6.28107369 239.91589375 9.1010103 239.91850281 13.26332092 C239.94819467 14.40413253 239.94819467 14.40413253 239.97848636 15.56799084 C240.03816802 18.11313436 240.06221623 20.65731923 240.0859375 23.20303345 C240.12055336 25.03015618 240.15703321 26.85724441 240.19523621 28.68429565 C240.31068987 34.68708359 240.37253299 40.68994168 240.4309082 46.69351196 C240.45378394 48.76736259 240.47688994 50.8412107 240.50022316 52.91505623 C240.59411613 61.55436554 240.67498381 70.19361177 240.71971416 78.83332729 C240.78369066 91.1703975 240.92249781 103.5011108 241.17060822 115.83589977 C241.33943772 124.53098822 241.42207431 133.22440576 241.44248801 141.92109448 C241.45675018 147.10337084 241.5063915 152.27916284 241.64807701 157.45965385 C242.56295902 192.65989123 242.56295902 192.65989123 232.98397881 203.56642705 C228.98715995 207.75133377 224.53776165 211.32597998 219.84345436 214.70331001 C214.04890914 218.88868112 208.8689871 223.80246399 203.85668945 228.88491821 C203.39866943 229.34672485 202.94064941 229.80853149 202.46875 230.28433228 C201.0330277 231.73204544 199.60066513 233.18300678 198.16918945 234.63491821 C192.51232694 240.37253811 186.87164015 246.07088009 180.7277832 251.29507446 C179.49415767 252.35555957 178.31950694 253.48460073 177.16918945 254.63491821 C174.7098427 254.83880451 172.36213478 254.91739184 169.90104675 254.90907288 C168.76446411 254.91692789 168.76446411 254.91692789 167.60492021 254.9249416 C165.05231609 254.94000745 162.49991125 254.94064819 159.94726562 254.9413147 C158.12259073 254.94893184 156.29791905 254.95735856 154.47325134 254.96653748 C149.50624418 254.988535 144.5392986 254.99728856 139.57224822 255.00236392 C136.4709161 255.00600169 133.36960025 255.01223874 130.26827431 255.01936531 C119.4539074 255.0438793 108.63958858 255.05691564 97.82519531 255.06045532 C87.73677943 255.0640908 77.64866776 255.09398207 67.56034487 255.13585991 C58.90635957 255.17052718 50.25247522 255.18600316 41.59842092 255.18670136 C36.42653719 255.18749547 31.254963 255.19629557 26.08315086 255.22469902 C21.21819392 255.25081821 16.35380446 255.25311934 11.48880959 255.23704338 C9.70256949 255.2352239 7.91629723 255.24196448 6.13012695 255.25786209 C3.69216974 255.27823877 1.25621367 255.26782238 -1.18171692 255.24964905 C-1.88950486 255.26284902 -2.59729279 255.27604898 -3.32652885 255.28964895 C-7.23890621 255.22298438 -8.71681918 254.73172046 -11.7463789 252.15899754 C-12.77817256 250.90957827 -12.77817256 250.90957827 -13.83081055 249.63491821 C-14.16081055 249.30491821 -14.49081055 248.97491821 -14.83081055 248.63491821 C-14.93998986 245.52395133 -14.98306148 242.4348475 -14.98471069 239.3230896 C-14.98909295 238.33345978 -14.9934752 237.34382996 -14.99799025 236.32421136 C-15.0114325 232.98083837 -15.01756924 229.63749177 -15.02368164 226.2940979 C-15.03157833 223.90800353 -15.03984701 221.52191037 -15.04846191 219.13581848 C-15.07246351 211.95484481 -15.08761776 204.77386581 -15.10052198 197.59286535 C-15.10423222 195.56544377 -15.10820559 193.53802289 -15.11227465 191.510602 C-15.13751141 178.92775847 -15.15957038 166.34491389 -15.17200279 153.76205063 C-15.17493263 150.84581244 -15.17789427 147.92957429 -15.1809082 145.01333618 C-15.18165425 144.28849385 -15.1824003 143.56365151 -15.18316896 142.81684425 C-15.19582363 131.0737663 -15.22904626 119.33083972 -15.27071004 107.58783254 C-15.31311116 95.53845348 -15.33669578 83.48915194 -15.34192336 71.43969846 C-15.34533977 64.67156654 -15.35712144 57.90367108 -15.39002609 51.13561249 C-15.42000788 44.76952717 -15.42645368 38.40385477 -15.41464233 32.037714 C-15.41442077 29.69836453 -15.42279363 27.35899645 -15.44029617 25.01971245 C-15.46286032 21.83086625 -15.4547512 18.64353345 -15.43881226 15.4546814 C-15.45269434 14.52442729 -15.46657643 13.59417318 -15.48087919 12.63572955 C-15.42897401 8.43398058 -15.17474232 6.18455352 -12.9072361 2.5608654 C-8.55731808 -0.16233145 -5.04158727 -0.06037244 0 0 Z " fill="#F0532E" transform="translate(137.830810546875,122.36508178710938)"/>
<path d="M0 0 C2.90883406 2.11189322 3.8679213 3.29201932 4.53125 6.84765625 C4.46372601 13.7941865 3.61338356 19.3492343 0.875 25.7578125 C-0.18177124 28.06464358 -0.18177124 28.06464358 0 31 C0.29390625 30.41734375 0.5878125 29.8346875 0.890625 29.234375 C6.98436028 18.09754844 17.53021546 6.21073393 30.05078125 2.37109375 C36.6468506 1.11532904 43.05086253 1.86598118 49 5 C54.80531376 10.01311742 56.92935427 15.54087313 58 23 C58.62288696 33.18180605 57.722194 43.02303411 56.5 53.125 C55.33614116 63.03244202 54.65266471 72.84646184 54.578125 82.81585693 C54.56280687 84.83455904 54.52963236 86.85310042 54.49609375 88.87158203 C54.31482597 95.82596377 54.31482597 95.82596377 57.01171875 101.984375 C60.45132704 107.20122687 59.40860921 113.29294696 59.25 119.375 C59.23195313 120.68339844 59.21390625 121.99179687 59.1953125 123.33984375 C59.14829348 126.56064689 59.08258181 129.77994474 59 133 C37.89112131 134.03474896 37.89112131 134.03474896 28.98828125 126.23828125 C24.39220957 121.48804364 21.98662218 116.24232467 20 110 C19.64164062 108.9275 19.28328125 107.855 18.9140625 106.75 C17.85705047 102.41354039 17.65893792 98.50568913 17.6875 94.0625 C17.68878906 93.20495117 17.69007813 92.34740234 17.69140625 91.46386719 C17.80627633 83.44880747 18.82969857 75.61958841 19.92138672 67.6887207 C22.42977601 52.91719765 22.42977601 52.91719765 19 39 C16.21160696 38.49734308 16.21160696 38.49734308 13 39 C-2.5324826 53.79284057 -2.80590206 81.68754895 -3.36450195 101.56542969 C-3.41199778 103.80011632 -3.44020501 106.03532413 -3.44604492 108.27050781 C-3.56720898 115.78622588 -4.6029521 121.50164848 -9.96484375 127.0234375 C-17.42918004 132.13761642 -23.60265639 133.96538476 -32.6875 134.3125 C-33.61949219 134.34988281 -34.55148438 134.38726562 -35.51171875 134.42578125 C-38 134 -38 134 -39.83203125 132.23046875 C-41 130 -41 130 -41 126 C-42.24716797 126.63228516 -42.24716797 126.63228516 -43.51953125 127.27734375 C-44.60621094 127.82519531 -45.69289062 128.37304688 -46.8125 128.9375 C-47.89144531 129.48277344 -48.97039062 130.02804687 -50.08203125 130.58984375 C-57.39945552 134.12610902 -65.46148794 134.09845924 -73.30859375 132.19921875 C-81.86483862 129.02741333 -87.20514042 124.1751364 -91.52734375 116.171875 C-96.36413365 105.46083882 -97.35179374 94.45121838 -97.25 82.8125 C-97.24540771 81.70841797 -97.24081543 80.60433594 -97.23608398 79.46679688 C-96.89738164 47.79476328 -96.89738164 47.79476328 -94 42 C-93.78306575 40.51391922 -93.60839171 39.021528 -93.45703125 37.52734375 C-92.03405691 24.84267436 -90.9145034 16.59109528 -80.58569336 8.29199219 C-75.10007349 4.03863089 -70.38128187 1.41524514 -63.4375 0.5625 C-59.06626673 1.11883878 -57.75937374 2.6725199 -55 6 C-54.505 6.495 -54.505 6.495 -54 7 C-52.95990095 16.30973906 -54.73422353 25.31867231 -56.48901367 34.42431641 C-58.72068221 46.15449255 -59.20866939 57.8030631 -59.24023438 69.7175293 C-59.24997231 71.93120475 -59.28113468 74.14396121 -59.3125 76.35742188 C-59.45026769 91.35973692 -59.45026769 91.35973692 -54 105 C-51.08559301 105.66721536 -51.08559301 105.66721536 -48 105 C-45.72376805 102.94900524 -45.72376805 102.94900524 -44 100 C-43.278125 98.989375 -42.55625 97.97875 -41.8125 96.9375 C-37.46740776 89.08893279 -38.84343638 77.79959343 -38.75390625 69.05859375 C-38.72098876 66.82356348 -38.68777679 64.58853754 -38.65429688 62.35351562 C-38.60689977 58.88910651 -38.56235551 55.4247175 -38.52319336 51.96020508 C-38.48320652 48.57616875 -38.4317631 45.19245027 -38.37890625 41.80859375 C-38.3704921 40.7874498 -38.36207794 39.76630585 -38.35340881 38.71421814 C-38.14729421 26.55819646 -36.96425407 17.6586007 -28 8.9375 C-20.42917026 2.47126673 -10.14567083 -2.419609 0 0 Z " fill="#FEFCFC" transform="translate(255,210)"/>
<path d="M0 0 C3.49496884 1.36389028 4.64318169 2.77828713 6.5625 6 C7.0575 9.96 7.0575 9.96 7.5625 14 C18.7825 14.33 30.0025 14.66 41.5625 15 C34.80064805 22.88882728 34.80064805 22.88882728 31.7578125 25.9375 C31.09136719 26.60523438 30.42492187 27.27296875 29.73828125 27.9609375 C29.06152344 28.63382812 28.38476562 29.30671875 27.6875 30 C26.68396484 31.00933594 26.68396484 31.00933594 25.66015625 32.0390625 C22.44444945 35.24857334 19.19437629 38.35800322 15.7421875 41.3125 C10.40265733 45.91946074 5.51009993 50.98176812 0.5625 56 C-14.78039439 71.5619296 -14.78039439 71.5619296 -21.4375 76 C-21.4375 65.11 -21.4375 54.22 -21.4375 43 C-26.0575 43 -30.6775 43 -35.4375 43 C-35.4375 42.67 -35.4375 42.34 -35.4375 42 C-30.8175 42 -26.1975 42 -21.4375 42 C-21.4375 33.09 -21.4375 24.18 -21.4375 15 C-18.1375 14.34 -14.8375 13.68 -11.4375 13 C-9.13888504 10.84451553 -9.13888504 10.84451553 -8 8.0625 C-4.02218336 0 -4.02218336 0 0 0 Z " fill="#FE9157" transform="translate(335.4375,301)"/>
<path d="M0 0 C3.43609563 1.87223159 5.91435412 3.85933304 7.828125 7.24609375 C8.15143971 10.07436924 8.30456273 12.6107617 8.265625 15.43359375 C8.25732666 16.19663818 8.24902832 16.95968262 8.24047852 17.74584961 C7.93959385 27.78640318 4.03358341 34.33760651 -3.171875 41.24609375 C-8.88271373 45.93956216 -14.23698015 46.67281249 -21.4765625 46.5859375 C-25.8810927 46.03058369 -27.29709625 44.62395878 -30.171875 41.24609375 C-32.78113138 36.15866803 -33.64592522 31.99100648 -33.546875 26.24609375 C-33.56427734 25.23675781 -33.56427734 25.23675781 -33.58203125 24.20703125 C-33.54123652 17.16314113 -31.18161832 11.25583707 -26.171875 6.24609375 C-18.14586174 0.82061439 -9.83852045 -3.41516987 0 0 Z " fill="#FEFBFB" transform="translate(205.171875,156.75390625)"/>
<path d="M0 0 C0.55945313 0.20496094 1.11890625 0.40992188 1.6953125 0.62109375 C9.58845047 3.27328963 15.09705115 3.36407508 24 4 C24 14.56 24 25.12 24 36 C4.53 36 -14.94 36 -35 36 C-28.25 28.125 -28.25 28.125 -25.65673828 25.54321289 C-25.07658966 24.9631398 -24.49644104 24.38306671 -23.89871216 23.78541565 C-23.29534027 23.18720505 -22.69196838 22.58899445 -22.0703125 21.97265625 C-21.43511688 21.33887558 -20.79992126 20.70509491 -20.14547729 20.05210876 C-18.14101284 18.05318594 -16.13307786 16.05779216 -14.125 14.0625 C-12.75497611 12.69749867 -11.38518226 11.3322664 -10.015625 9.96679688 C-6.67973457 6.64185789 -3.34072964 3.32007647 0 0 Z " fill="#C34224" transform="translate(290,340)"/>
<path d="M0 0 C0.33 0 0.66 0 1 0 C1 9.24 1 18.48 1 28 C-3.2384375 28.0928125 -3.2384375 28.0928125 -7.5625 28.1875 C-8.43849854 28.21481201 -9.31449707 28.24212402 -10.21704102 28.27026367 C-15.58352194 28.32662536 -19.21676894 27.44618931 -24 25 C-23.26555664 24.42709229 -22.53111328 23.85418457 -21.77441406 23.26391602 C-17.48925528 19.7672355 -13.65933002 15.84372738 -9.75 11.9375 C-8.92242187 11.12216797 -8.09484375 10.30683594 -7.2421875 9.46679688 C-6.45585937 8.68240234 -5.66953125 7.89800781 -4.859375 7.08984375 C-4.14233398 6.37691162 -3.42529297 5.66397949 -2.68652344 4.92944336 C-0.78820314 3.00836864 -0.78820314 3.00836864 0 0 Z " fill="#D0CDCC" transform="translate(313,315)"/>
<path d="M0 0 C3.47273081 1.47591059 4.69372546 2.72783932 6.5 6.0625 C6.53160804 9.20749971 6.05917176 11.94045769 5.5 15.0625 C-0.44 15.0625 -6.38 15.0625 -12.5 15.0625 C-4.67129071 0.11678227 -4.67129071 0.11678227 0 0 Z " fill="#FEF3F1" transform="translate(335.5,300.9375)"/>
<path d="M0 0 C0.66 0.99 1.32 1.98 2 3 C0.02 5.97 -1.96 8.94 -4 12 C-5.07349791 7.70600835 -4.79682816 6.80504787 -3 3 C-2.34 3 -1.68 3 -1 3 C-0.67 2.01 -0.34 1.02 0 0 Z " fill="#F26D4B" transform="translate(259,230)"/>
<path d="M0 0 C0.33 1.32 0.66 2.64 1 4 C-1.3125 6.0625 -1.3125 6.0625 -4 8 C-4.99 7.67 -5.98 7.34 -7 7 C-5.47005208 5.76302083 -3.94010417 4.52604167 -2.41015625 3.2890625 C-0.86733563 2.0333609 -0.86733563 2.0333609 0 0 Z " fill="#F26846" transform="translate(248,332)"/>
</svg>
